<?xml version="1.0" standalone="no"?>
<!DOCTYPE svg PUBLIC "-//W3C//DTD SVG 20010904//EN"
 "http://www.w3.org/TR/2001/REC-SVG-20010904/DTD/svg10.dtd">
<svg version="1.0" xmlns="http://www.w3.org/2000/svg"
 width="1487.000000pt" height="1450.000000pt" viewBox="0 0 1487.000000 1450.000000"
 preserveAspectRatio="xMidYMid meet">

<g transform="translate(0.000000,1450.000000) scale(0.100000,-0.100000)"
fill="#000000" stroke="none">
<path d="M2386 14285 c-4 -21 -13 -35 -21 -35 -8 0 -15 -9 -15 -20 0 -11 7
-20 15 -20 8 0 15 -6 15 -14 0 -7 9 -16 20 -19 11 -3 20 -12 20 -21 0 -11 9
-16 28 -16 42 0 72 -11 72 -26 0 -8 9 -14 20 -14 13 0 20 -7 20 -20 0 -11 7
-20 15 -20 8 0 15 -9 15 -20 0 -11 7 -20 15 -20 8 0 15 -6 15 -14 0 -17 64
-26 191 -26 81 0 99 3 99 15 0 8 9 15 20 15 11 0 20 7 20 15 0 8 6 15 14 15 7
0 16 9 19 20 3 11 12 20 20 20 12 0 17 17 23 69 4 49 10 68 19 65 8 -3 14 8
18 32 4 21 5 39 4 40 -2 3 -606 34 -650 34 -20 0 -26 -6 -31 -35z"/>
<path d="M3200 14195 c0 -8 -7 -15 -15 -15 -12 0 -15 -13 -15 -55 0 -42 3 -55
15 -55 8 0 15 -9 15 -20 0 -11 6 -20 14 -20 7 0 16 -9 19 -20 3 -11 12 -20 21
-20 9 0 16 -7 16 -15 0 -8 14 -17 35 -21 19 -3 35 -12 35 -19 0 -12 89 -29 99
-19 3 2 7 42 9 89 4 74 2 85 -12 85 -9 0 -16 8 -16 20 0 13 -7 20 -20 20 -13
0 -20 7 -20 20 0 11 -7 20 -15 20 -8 0 -15 6 -15 14 0 15 -43 26 -106 26 -32
0 -44 -4 -44 -15z"/>
<path d="M2440 13905 c0 -8 -9 -15 -20 -15 -13 0 -20 -7 -20 -20 0 -11 -7 -20
-15 -20 -18 0 -21 -66 -3 -72 6 -2 12 -25 12 -51 1 -36 5 -49 19 -53 9 -3 17
-12 17 -20 0 -8 7 -14 15 -14 8 0 15 -9 15 -20 0 -13 7 -20 20 -20 13 0 20 -7
20 -20 0 -16 7 -20 34 -20 l33 0 7 77 c3 42 6 107 6 145 0 61 -2 68 -20 68
-12 0 -17 5 -14 14 3 8 -3 16 -15 19 -12 3 -21 12 -21 21 0 12 -10 16 -35 16
-24 0 -35 -5 -35 -15z"/>
<path d="M3120 13840 c0 -13 -7 -20 -20 -20 -17 0 -20 -7 -20 -47 0 -27 -3
-65 -7 -86 -5 -33 -3 -39 16 -44 16 -4 21 -13 21 -39 0 -24 5 -34 15 -34 8 0
15 -9 15 -20 0 -16 7 -20 35 -20 28 0 35 -4 35 -20 0 -12 7 -20 16 -20 9 0 18
9 21 20 3 11 11 20 18 20 16 0 25 46 25 135 0 56 -4 74 -15 79 -9 3 -15 18
-15 35 0 21 -6 30 -21 34 -15 4 -20 11 -16 21 5 12 -1 16 -26 17 -18 0 -42 2
-54 5 -18 3 -23 -1 -23 -16z"/>
<path d="M2787 13710 c-3 -11 -11 -19 -19 -18 -10 2 -14 -21 -16 -104 -2 -92
0 -108 13 -108 8 0 15 -9 15 -20 0 -11 6 -20 14 -20 7 0 16 -9 19 -20 3 -11
12 -20 21 -20 9 0 16 -7 16 -15 0 -10 11 -15 35 -15 24 0 35 5 35 15 0 8 6 15
14 15 20 0 26 32 26 148 0 84 -3 102 -15 102 -8 0 -15 9 -15 20 0 11 -7 20
-15 20 -8 0 -15 6 -15 14 0 15 -30 26 -76 26 -23 0 -33 -5 -37 -20z"/>
<path d="M1500 12909 c0 -15 -11 -16 -90 -11 -79 4 -90 3 -90 -12 0 -25 -113
-23 -137 3 -14 14 -39 20 -120 25 -99 6 -103 5 -103 -14 0 -13 -7 -20 -20 -20
-17 0 -20 -7 -20 -50 0 -38 4 -50 15 -50 8 0 15 -9 15 -20 0 -13 7 -20 20 -20
13 0 20 -7 20 -20 0 -11 7 -20 15 -20 8 0 15 -9 15 -20 0 -13 7 -20 20 -20 11
0 20 -7 20 -15 0 -8 7 -15 15 -15 8 0 15 -9 15 -20 0 -11 7 -20 15 -20 8 0 15
-9 15 -20 0 -13 7 -20 20 -20 13 0 20 -7 20 -20 0 -11 7 -20 15 -20 8 0 15 -6
15 -14 0 -7 9 -16 20 -19 11 -3 20 -12 20 -20 0 -17 77 -27 201 -27 64 0 79 3
79 15 0 8 9 15 20 15 13 0 20 7 20 20 0 13 7 20 20 20 11 0 20 7 20 15 0 8 6
15 14 15 14 0 26 49 26 108 0 25 4 32 20 32 13 0 20 7 20 20 0 11 6 20 14 20
8 0 17 14 21 30 4 17 12 30 20 30 13 0 25 42 25 86 0 17 -6 24 -20 24 -13 0
-20 7 -20 20 0 18 -7 20 -62 22 -35 0 -82 2 -105 2 -34 2 -43 -2 -43 -15z"/>
<path d="M1800 12536 c0 -7 -9 -16 -20 -19 -15 -4 -20 -14 -20 -36 0 -21 -5
-31 -15 -31 -8 0 -15 -7 -15 -15 0 -8 7 -15 15 -15 12 0 15 -13 15 -55 0 -40
4 -57 15 -61 9 -4 15 -19 15 -40 0 -24 5 -34 15 -34 8 0 15 -7 15 -15 0 -15
10 -17 76 -20 l31 -1 7 75 c11 134 8 211 -9 211 -8 0 -15 7 -15 16 0 9 -9 18
-20 21 -11 3 -20 12 -20 19 0 9 -12 14 -35 14 -23 0 -35 -5 -35 -14z"/>
<path d="M940 12468 c0 -11 -7 -18 -20 -18 -16 0 -20 -7 -20 -35 0 -28 -4 -35
-19 -35 -18 0 -20 -9 -23 -105 -3 -95 -1 -105 15 -105 10 0 17 -8 17 -20 0
-16 7 -20 35 -20 24 0 35 5 35 15 0 8 9 15 20 15 13 0 20 7 20 20 0 11 6 20
14 20 15 0 26 21 26 52 0 13 5 18 14 15 16 -6 26 39 26 126 l0 57 -35 0 c-26
0 -33 3 -29 15 6 15 2 17 -48 19 -21 1 -28 -3 -28 -16z"/>
<path d="M1496 12133 c-11 -133 -8 -164 13 -170 12 -3 17 -11 14 -20 -4 -9 2
-16 16 -20 11 -3 21 -11 21 -18 0 -7 7 -15 15 -19 8 -3 15 -12 15 -21 0 -11
10 -15 35 -15 24 0 35 5 35 15 0 8 8 15 19 15 15 0 19 11 24 68 12 119 9 182
-8 182 -8 0 -15 9 -15 20 0 13 -7 20 -19 20 -10 0 -21 9 -24 20 -4 17 -14 20
-70 20 l-64 0 -7 -77z"/>
<path d="M1180 12175 c0 -8 -9 -15 -20 -15 -16 0 -20 -7 -20 -37 0 -21 -3 -61
-6 -89 -5 -46 -4 -52 15 -57 16 -4 21 -13 21 -41 0 -25 4 -36 15 -36 8 0 15
-7 15 -15 0 -8 7 -15 15 -15 8 0 15 -9 15 -20 0 -16 7 -20 35 -20 24 0 35 5
35 15 0 8 8 15 19 15 21 0 31 55 31 178 0 57 -3 72 -15 72 -8 0 -15 9 -15 20
0 13 -7 20 -20 20 -13 0 -20 7 -20 20 0 17 -7 20 -50 20 -38 0 -50 -4 -50 -15z"/>
<path d="M3270 11750 c0 -13 -5 -18 -16 -13 -10 4 -17 -1 -21 -16 -4 -15 -13
-21 -34 -21 -17 0 -32 -6 -35 -15 -4 -8 -15 -15 -25 -15 -13 0 -19 -7 -19 -21
0 -15 -5 -19 -15 -15 -10 3 -19 -1 -23 -12 -4 -9 -13 -17 -19 -18 -7 -1 -22
-2 -33 -2 -11 -1 -20 -9 -20 -17 0 -12 -13 -15 -55 -15 -42 0 -55 -3 -55 -15
0 -12 -14 -15 -70 -15 -56 0 -70 -3 -70 -15 0 -8 -9 -15 -20 -15 -11 0 -20 -7
-20 -15 0 -8 -7 -15 -16 -15 -9 0 -18 -9 -21 -20 -3 -11 -12 -20 -19 -20 -9 0
-14 -12 -14 -35 0 -24 5 -35 15 -35 8 0 15 -9 15 -20 0 -13 7 -20 20 -20 11 0
20 -6 20 -14 0 -15 30 -26 73 -26 20 0 27 -5 27 -20 0 -11 7 -20 15 -20 8 0
15 -6 15 -14 0 -7 9 -16 20 -19 11 -3 20 -12 20 -21 0 -9 7 -16 15 -16 8 0 15
-9 15 -20 0 -16 7 -20 33 -20 19 0 75 -3 125 -6 79 -6 92 -5 92 8 0 9 9 18 20
21 11 3 20 13 20 22 0 12 5 15 16 11 11 -4 18 1 21 14 3 11 12 20 19 20 8 0
14 9 14 20 0 13 7 20 19 20 16 0 19 11 25 70 5 49 11 70 21 70 10 0 16 20 21
69 5 56 10 70 25 74 17 5 19 15 19 91 0 70 -3 86 -15 86 -8 0 -15 9 -15 20 0
18 -7 20 -55 20 -48 0 -55 -2 -55 -20z"/>
<path d="M3540 11385 c0 -10 -11 -15 -34 -15 l-34 0 -7 -64 c-8 -68 -3 -86 21
-86 8 0 14 -6 14 -14 0 -8 7 -16 15 -20 8 -3 15 -12 15 -20 0 -7 9 -16 20 -19
11 -3 20 -12 20 -21 0 -11 9 -16 28 -16 42 0 72 -11 72 -26 0 -8 9 -14 20 -14
11 0 20 7 20 15 0 8 6 15 14 15 7 0 16 14 20 31 10 51 7 79 -8 79 -8 0 -17 15
-20 34 -4 19 -13 37 -21 40 -8 3 -15 12 -15 21 0 8 -7 15 -15 15 -8 0 -15 9
-15 20 0 16 -7 20 -35 20 -22 0 -38 6 -41 14 -8 20 -34 29 -34 11z"/>
<path d="M2700 11059 c0 -14 -5 -19 -14 -16 -19 8 -26 -14 -26 -84 0 -46 3
-59 15 -59 10 0 15 -11 15 -35 0 -29 4 -35 21 -35 15 0 19 -4 15 -16 -4 -11 1
-18 14 -21 11 -3 20 -14 20 -24 0 -11 7 -19 15 -19 8 0 15 -7 15 -15 0 -10 10
-15 34 -15 41 0 44 9 46 140 2 138 2 140 -15 140 -8 0 -15 9 -15 20 0 11 -6
20 -14 20 -7 0 -16 9 -19 20 -4 17 -14 20 -56 20 -45 0 -51 -2 -51 -21z"/>
<path d="M3376 10958 c-11 -96 -8 -158 9 -158 10 0 15 -10 15 -34 0 -26 5 -36
20 -41 11 -3 20 -13 20 -20 0 -9 17 -16 44 -20 48 -8 66 -2 66 21 0 8 6 14 14
14 9 0 15 21 19 68 10 99 9 112 -8 112 -10 0 -15 11 -15 35 0 28 -4 35 -20 35
-13 0 -20 7 -20 20 0 18 -7 20 -69 20 l-68 0 -7 -52z"/>
<path d="M3090 10898 c0 -11 -7 -18 -19 -18 -21 0 -31 -55 -31 -173 0 -61 2
-70 20 -74 11 -3 20 -12 20 -19 0 -8 7 -14 15 -14 8 0 15 -9 15 -19 0 -16 9
-21 44 -26 48 -8 66 -2 66 21 0 8 6 14 14 14 17 0 26 43 26 121 0 46 -3 59
-15 59 -10 0 -15 10 -15 34 0 25 -5 35 -20 39 -11 3 -20 12 -20 21 0 9 -7 16
-15 16 -8 0 -15 9 -15 20 0 16 -6 19 -35 18 -27 -1 -35 -6 -35 -20z"/>
<path d="M2113 9979 c-4 -15 -14 -19 -54 -19 -37 0 -49 -4 -49 -15 0 -12 -13
-15 -60 -15 -48 0 -60 -3 -60 -16 0 -14 -11 -15 -87 -10 -49 3 -136 8 -195 12
l-108 6 0 -76 c0 -61 3 -76 15 -76 8 0 15 -7 15 -15 0 -8 7 -15 15 -15 8 0 15
-9 15 -20 0 -13 7 -20 20 -20 13 0 20 -7 20 -20 0 -15 7 -20 29 -20 20 0 30
-6 34 -20 3 -11 12 -20 21 -20 9 0 16 -7 16 -15 0 -9 7 -18 15 -21 8 -4 15
-12 15 -20 0 -8 9 -14 20 -14 13 0 20 -7 20 -20 0 -13 7 -20 20 -20 11 0 20
-7 20 -15 0 -16 26 -21 152 -30 81 -6 87 -5 93 15 5 15 15 20 41 20 24 0 34 5
34 15 0 8 7 15 15 15 8 0 17 14 21 35 3 19 12 35 19 35 14 0 25 44 25 101 0
32 3 39 20 39 16 0 20 7 20 34 0 25 5 35 20 39 15 4 20 14 20 36 0 21 5 31 15
31 8 0 15 9 15 20 0 12 -7 20 -16 20 -11 0 -14 5 -10 16 4 11 -1 18 -14 21
-11 3 -20 12 -20 19 0 10 -14 14 -42 15 -24 1 -56 3 -72 5 -21 2 -29 -2 -33
-17z"/>
<path d="M2380 9605 c0 -8 -6 -15 -14 -15 -18 0 -26 -32 -26 -112 0 -54 3 -68
15 -68 10 0 15 -11 15 -35 0 -28 4 -35 20 -35 13 0 20 -7 20 -20 0 -11 7 -20
15 -20 8 0 15 -6 15 -14 0 -15 21 -26 50 -26 12 0 20 10 24 35 4 21 13 35 21
35 12 0 15 16 15 75 0 60 -3 75 -15 75 -11 0 -15 12 -15 50 0 38 -4 50 -15 50
-8 0 -15 9 -15 20 0 18 -7 20 -55 20 -42 0 -55 -3 -55 -15z"/>
<path d="M1550 9465 c0 -8 -9 -15 -20 -15 -11 0 -20 -7 -20 -15 0 -8 -6 -15
-14 -15 -16 0 -26 -63 -26 -171 0 -64 3 -79 15 -79 8 0 15 -9 15 -20 0 -16 7
-20 35 -20 24 0 35 5 35 15 0 8 9 15 20 15 13 0 20 7 20 20 0 13 7 20 20 20
17 0 20 7 20 50 0 43 3 50 20 50 18 0 20 7 20 55 0 42 -3 55 -15 55 -10 0 -15
11 -15 35 l0 35 -55 0 c-42 0 -55 -3 -55 -15z"/>
<path d="M2116 9241 c-3 -20 -6 -69 -6 -108 0 -58 3 -73 15 -73 10 0 15 -11
15 -35 0 -28 4 -35 20 -35 13 0 17 -5 14 -14 -3 -9 3 -17 15 -21 12 -3 21 -13
21 -21 0 -9 11 -14 35 -14 24 0 35 5 35 15 0 8 9 15 20 15 17 0 20 7 20 44 0
26 6 51 15 60 18 18 19 33 3 38 -7 3 -11 24 -10 56 1 45 -2 52 -19 52 -12 0
-19 7 -19 20 0 11 -7 20 -15 20 -8 0 -15 6 -15 14 0 15 -51 27 -106 24 -28 -1
-33 -5 -38 -37z"/>
<path d="M1790 9189 c0 -22 -5 -32 -20 -36 -17 -4 -20 -14 -20 -54 0 -35 4
-51 15 -55 9 -4 15 -19 15 -40 0 -23 5 -34 15 -34 8 0 17 -14 21 -35 5 -30 10
-35 35 -35 22 0 29 -5 29 -20 0 -16 7 -20 34 -20 36 0 46 15 46 73 0 17 5 27
15 27 11 0 15 11 15 39 0 22 -4 41 -10 43 -5 2 -10 24 -11 50 -2 37 -7 49 -21
54 -10 3 -18 12 -18 20 0 8 -7 14 -15 14 -8 0 -15 9 -15 20 0 18 -7 20 -55 20
-55 0 -55 0 -55 -31z"/>
<path d="M3790 8935 c0 -8 -9 -15 -20 -15 -13 0 -20 -7 -20 -20 0 -13 -7 -20
-20 -20 -11 0 -20 -7 -20 -15 0 -8 -6 -15 -14 -15 -7 0 -16 -9 -19 -20 -3 -11
-12 -20 -21 -20 -9 0 -16 -7 -16 -15 0 -8 -9 -15 -20 -15 -11 0 -20 -6 -20
-14 0 -7 -9 -16 -20 -19 -11 -3 -20 -12 -20 -21 0 -9 -8 -16 -20 -16 -11 0
-20 -7 -20 -15 0 -10 -11 -15 -35 -15 -23 0 -35 -5 -35 -14 0 -9 -16 -15 -47
-19 -26 -3 -52 -12 -58 -21 -7 -9 -20 -16 -29 -16 -9 0 -16 -7 -16 -15 0 -8
-7 -15 -15 -15 -8 0 -17 -14 -21 -34 -4 -24 -10 -33 -20 -29 -11 4 -14 -5 -14
-36 0 -30 4 -41 15 -41 8 0 15 -6 15 -14 0 -19 22 -26 86 -26 47 0 54 -2 54
-20 0 -16 7 -20 35 -20 28 0 35 -4 35 -20 0 -13 7 -20 20 -20 11 0 20 -6 20
-14 0 -19 29 -25 139 -27 78 -2 95 0 103 14 5 9 16 17 23 17 8 0 15 7 15 15 0
8 9 15 20 15 13 0 20 7 20 19 0 12 7 18 18 17 12 -1 18 8 20 30 2 22 9 34 23
37 16 4 19 14 19 69 0 130 13 258 25 258 16 0 25 32 25 93 0 35 -4 47 -15 47
-8 0 -15 6 -15 14 0 19 -22 26 -86 26 -41 0 -54 -4 -54 -15z"/>
<path d="M4090 8595 c0 -8 -6 -15 -14 -15 -18 0 -26 -22 -26 -71 0 -28 4 -39
15 -39 8 0 15 -7 15 -16 0 -9 9 -18 20 -21 11 -3 20 -11 20 -18 0 -7 9 -15 20
-18 11 -3 20 -12 20 -21 0 -11 9 -16 28 -16 16 0 63 -3 105 -6 l77 -7 0 37 c0
23 -5 39 -15 42 -9 4 -15 19 -15 36 0 21 -6 31 -20 35 -11 3 -20 11 -20 18 0
7 -7 15 -15 19 -8 3 -15 12 -15 21 0 8 -9 15 -20 15 -11 0 -20 6 -20 14 0 19
-22 26 -86 26 -41 0 -54 -4 -54 -15z"/>
<path d="M4073 8241 c-3 -11 -11 -21 -18 -21 -13 0 -25 -64 -25 -136 0 -32 4
-44 15 -44 10 0 15 -11 15 -35 0 -28 4 -35 20 -35 13 0 20 -7 20 -20 0 -16 7
-20 35 -20 28 0 35 -4 35 -20 0 -16 7 -20 34 -20 l33 0 6 83 c11 133 9 167 -8
167 -8 0 -15 7 -15 16 0 9 -9 18 -20 21 -11 3 -20 14 -20 24 0 12 -7 19 -20
19 -11 0 -20 7 -20 15 0 8 -6 15 -14 15 -8 0 -22 3 -31 6 -11 5 -18 0 -22 -15z"/>
<path d="M3355 8150 c-4 -16 -13 -30 -21 -30 -8 0 -14 -10 -14 -24 0 -13 -3
-31 -6 -40 -4 -12 0 -16 15 -16 17 0 21 -6 21 -35 0 -24 5 -35 15 -35 8 0 15
-9 15 -20 0 -11 7 -20 15 -20 8 0 15 -7 15 -16 0 -9 9 -18 20 -21 11 -3 20
-11 20 -19 0 -14 55 -28 87 -22 16 3 18 15 21 91 2 73 0 87 -13 87 -10 0 -15
10 -15 34 0 21 -6 36 -15 40 -8 3 -15 12 -15 21 0 8 -9 15 -20 15 -13 0 -20 7
-20 20 0 17 -7 20 -49 20 -47 0 -50 -2 -56 -30z"/>
<path d="M3747 8053 c-4 -3 -7 -19 -7 -35 0 -17 -5 -28 -14 -28 -29 0 -36 -67
-8 -78 11 -5 18 -19 19 -42 1 -19 2 -41 2 -47 1 -7 8 -13 16 -13 8 0 15 -9 15
-20 0 -11 7 -20 15 -20 8 0 15 -9 15 -20 0 -18 7 -20 69 -20 81 0 81 -1 81
128 0 66 -3 82 -15 82 -10 0 -15 11 -15 35 0 24 -5 35 -15 35 -8 0 -15 8 -15
19 0 15 -10 19 -52 25 -68 8 -83 8 -91 -1z"/>
<path d="M2760 6865 c0 -11 -11 -15 -40 -15 -29 0 -40 -4 -40 -15 0 -12 -14
-15 -70 -15 -56 0 -70 -3 -70 -15 0 -13 -24 -15 -193 -9 l-194 7 -6 -24 c-4
-13 -7 -45 -7 -71 0 -36 4 -48 15 -48 8 0 15 -7 15 -15 0 -8 7 -15 16 -15 9 0
18 -9 21 -20 3 -11 12 -20 19 -20 8 0 14 -9 14 -20 0 -16 7 -20 31 -20 22 0
32 -5 36 -20 3 -11 14 -20 24 -20 13 0 16 -5 12 -16 -4 -10 1 -17 16 -21 11
-3 21 -11 21 -18 0 -7 7 -15 15 -19 8 -3 15 -12 15 -21 0 -8 9 -15 20 -15 11
0 20 -6 20 -14 0 -18 25 -24 148 -32 91 -6 102 -5 102 10 0 12 9 16 35 16 28
0 35 4 35 20 0 13 7 20 20 20 13 0 20 7 20 20 0 11 6 20 14 20 16 0 26 30 26
85 0 55 10 85 26 85 8 0 14 9 14 20 0 11 9 28 20 37 11 10 20 23 20 30 0 7 6
13 14 13 16 0 26 30 26 78 0 30 -2 32 -35 32 -28 0 -35 4 -35 20 0 18 -7 20
-70 20 -56 0 -70 -3 -70 -15z"/>
<path d="M3030 6495 c0 -8 -8 -15 -19 -15 -15 0 -19 -11 -24 -67 -11 -107 -10
-113 14 -113 18 0 21 -5 17 -35 -3 -29 -1 -35 14 -35 11 0 18 -7 18 -20 0 -11
6 -20 14 -20 7 0 16 -9 19 -20 4 -14 14 -20 35 -20 22 0 32 6 37 20 3 11 12
20 19 20 14 0 26 69 26 153 0 39 -4 50 -18 54 -14 3 -17 12 -14 39 4 29 1 34
-17 34 -14 0 -21 6 -21 20 0 17 -7 20 -50 20 -38 0 -50 -4 -50 -15z"/>
<path d="M2194 6355 c-4 -8 -12 -15 -20 -15 -8 0 -14 -9 -14 -20 0 -13 -7 -20
-19 -20 -16 0 -19 -11 -25 -92 -9 -139 -9 -145 15 -151 15 -4 20 -11 16 -21
-5 -13 1 -16 33 -16 29 0 40 4 40 15 0 8 7 15 15 15 8 0 15 7 15 15 0 8 9 15
20 15 16 0 20 7 20 35 0 28 4 35 20 35 19 0 20 7 20 90 0 73 -3 90 -15 90 -8
0 -15 9 -15 20 0 17 -7 20 -50 20 -36 0 -52 -4 -56 -15z"/>
<path d="M2793 6150 c-3 -11 -11 -20 -18 -20 -13 0 -25 -64 -25 -136 0 -32 4
-44 15 -44 10 0 15 -11 15 -35 0 -28 4 -35 20 -35 13 0 20 -7 20 -20 0 -11 7
-20 15 -20 8 0 15 -6 15 -14 0 -16 30 -26 78 -26 30 0 32 2 32 33 0 20 8 39
20 50 25 21 29 97 5 97 -12 0 -15 13 -15 55 0 42 -3 55 -15 55 -8 0 -15 7 -15
15 0 8 -7 15 -16 15 -9 0 -18 9 -21 20 -4 13 -14 20 -32 21 -14 0 -37 2 -49 5
-18 3 -25 -1 -29 -16z"/>
<path d="M2437 6103 c-4 -3 -7 -26 -7 -50 0 -32 -4 -43 -15 -43 -17 0 -21 -36
-4 -42 6 -2 12 -27 12 -56 1 -43 5 -52 19 -52 11 0 18 -7 18 -20 0 -11 7 -20
15 -20 8 0 15 -6 15 -14 0 -8 9 -18 20 -21 11 -3 20 -13 20 -21 0 -9 11 -14
35 -14 33 0 35 2 35 35 0 29 4 35 18 33 15 -3 17 7 20 70 2 59 0 72 -13 72
-11 0 -15 10 -15 35 0 24 -5 35 -15 35 -8 0 -15 9 -15 20 0 13 -7 20 -20 20
-13 0 -20 7 -20 20 0 17 -7 20 -48 20 -27 0 -52 -3 -55 -7z"/>
<path d="M4543 5961 c-3 -11 -11 -21 -18 -21 -7 0 -15 -7 -19 -15 -3 -8 -12
-15 -20 -15 -7 0 -16 -9 -19 -20 -3 -11 -12 -20 -21 -20 -9 0 -16 -7 -16 -15
0 -8 -9 -15 -20 -15 -11 0 -20 -7 -20 -15 0 -8 -6 -15 -14 -15 -7 0 -16 -9
-19 -20 -3 -11 -12 -20 -21 -20 -9 0 -16 -7 -16 -15 0 -8 -9 -15 -20 -15 -11
0 -20 -7 -20 -15 0 -14 -24 -20 -57 -16 -7 1 -13 -7 -13 -19 0 -17 -6 -20 -40
-20 -29 0 -40 -4 -40 -15 0 -10 -11 -15 -35 -15 -24 0 -35 -5 -35 -15 0 -8 -9
-15 -20 -15 -13 0 -20 -7 -20 -20 0 -11 -6 -20 -14 -20 -17 0 -26 -31 -26 -92
0 -46 1 -48 28 -48 42 0 72 -11 72 -26 0 -9 12 -14 33 -14 47 0 77 -10 77 -26
0 -8 7 -14 16 -14 9 0 18 -9 21 -20 4 -15 14 -20 39 -20 22 0 34 -5 34 -14 0
-27 97 -37 106 -11 4 11 21 15 55 15 37 0 49 4 49 15 0 8 9 15 20 15 13 0 20
7 20 20 0 13 7 20 20 20 13 0 20 7 20 20 0 11 6 20 14 20 19 0 23 28 31 183 5
93 10 127 20 127 18 0 25 33 25 128 0 75 -2 84 -19 89 -12 3 -17 11 -14 19 4
10 -3 14 -23 14 -16 0 -39 3 -52 6 -18 5 -24 2 -29 -15z"/>
<path d="M4850 5625 c0 -8 -9 -15 -20 -15 -14 0 -20 -7 -20 -21 0 -12 -4 -18
-11 -13 -17 10 -29 -16 -29 -63 0 -33 4 -43 16 -43 9 0 18 -9 21 -19 3 -12 17
-23 34 -26 16 -4 29 -13 29 -21 0 -8 9 -14 19 -14 30 0 51 -11 51 -26 0 -11
17 -14 69 -14 77 0 81 4 81 71 0 28 -4 39 -15 39 -10 0 -15 10 -15 29 0 20 -6
30 -20 34 -11 3 -20 12 -20 21 0 9 -7 16 -15 16 -8 0 -15 9 -15 20 0 14 -7 20
-24 20 -45 0 -86 13 -86 26 0 8 -7 14 -15 14 -8 0 -15 -7 -15 -15z"/>
<path d="M4790 5235 c0 -8 -6 -15 -14 -15 -8 0 -16 -17 -20 -46 -10 -74 -8
-104 8 -104 8 0 17 -15 20 -35 4 -21 13 -35 21 -35 8 0 15 -9 15 -20 0 -11 6
-20 14 -20 7 0 16 -9 19 -20 4 -17 14 -20 56 -20 39 0 51 4 51 15 0 8 9 15 20
15 18 0 20 7 20 55 0 42 -3 55 -15 55 -12 0 -15 13 -15 55 0 40 -4 55 -14 55
-7 0 -16 9 -19 20 -3 11 -12 20 -21 20 -9 0 -16 6 -16 14 0 16 -30 26 -77 26
-23 0 -33 -5 -33 -15z"/>
<path d="M4097 5171 c-22 -7 -27 -25 -27 -103 0 -63 3 -78 15 -78 10 0 15 -11
15 -35 0 -29 4 -35 21 -35 14 0 19 -5 16 -14 -4 -10 5 -16 29 -20 19 -4 34
-13 34 -20 0 -13 57 -28 73 -19 4 2 7 51 7 109 0 86 -3 104 -15 104 -10 0 -15
11 -15 35 0 24 -5 35 -15 35 -8 0 -15 9 -15 19 0 16 -9 20 -55 23 -30 1 -61 1
-68 -1z"/>
<path d="M4500 5065 c0 -8 -9 -15 -20 -15 -19 0 -20 -7 -20 -105 0 -87 3 -105
15 -105 8 0 15 -9 15 -20 0 -11 7 -20 15 -20 8 0 15 -9 15 -20 0 -13 7 -20 20
-20 11 0 20 -6 20 -14 0 -15 30 -26 71 -26 18 0 28 6 32 20 3 11 12 20 21 20
23 0 23 125 1 134 -9 3 -15 19 -15 41 0 24 -4 35 -15 35 -10 0 -15 10 -15 34
0 31 -3 34 -35 40 -21 4 -35 13 -35 21 0 10 -11 15 -35 15 -24 0 -35 -5 -35
-15z"/>
<path d="M3733 3990 c-3 -11 -11 -20 -18 -20 -7 0 -15 -7 -19 -15 -3 -9 -18
-15 -36 -15 -18 0 -33 -6 -36 -15 -4 -8 -13 -15 -20 -15 -8 0 -18 -8 -22 -17
-4 -10 -13 -18 -19 -19 -7 -1 -22 -2 -33 -2 -11 -1 -20 -9 -20 -17 0 -11 -12
-15 -49 -15 -34 0 -51 -4 -55 -15 -4 -11 -22 -15 -76 -15 -56 0 -70 -3 -70
-15 0 -11 -11 -15 -40 -15 -29 0 -40 -4 -40 -15 0 -8 -7 -15 -15 -15 -12 0
-15 -13 -15 -55 0 -42 3 -55 15 -55 8 0 15 -9 15 -20 0 -16 7 -20 35 -20 23 0
35 -5 35 -14 0 -17 22 -26 65 -26 24 0 34 -5 38 -20 4 -15 14 -20 36 -20 20 0
31 -5 31 -14 0 -7 9 -16 20 -19 11 -3 20 -12 20 -20 0 -19 50 -27 178 -27 82
0 104 3 108 15 4 9 19 15 40 15 32 0 34 2 34 34 0 26 4 33 18 32 12 -1 18 8
20 32 2 18 9 32 17 32 19 0 25 24 25 108 0 113 10 182 26 182 8 0 14 6 14 13
0 6 3 22 6 35 5 18 2 22 -15 22 -14 0 -21 6 -21 19 0 15 -11 19 -61 25 -97 10
-110 8 -116 -14z"/>
<path d="M5800 3735 c0 -28 -4 -35 -20 -35 -13 0 -20 -7 -20 -20 0 -11 -6 -20
-14 -20 -8 0 -16 -7 -20 -15 -3 -8 -12 -15 -20 -15 -8 0 -16 -15 -20 -35 -4
-21 -13 -35 -21 -35 -8 0 -15 -7 -15 -15 0 -8 -9 -15 -20 -15 -11 0 -20 -7
-20 -15 0 -8 -14 -17 -35 -21 -20 -3 -35 -12 -35 -20 0 -8 -9 -14 -20 -14 -11
0 -20 -7 -20 -15 0 -10 -10 -15 -34 -15 -25 0 -35 -5 -39 -20 -3 -11 -12 -20
-21 -20 -9 0 -16 -7 -16 -15 0 -8 -9 -15 -20 -15 -13 0 -20 -7 -20 -20 0 -11
-6 -20 -14 -20 -18 0 -26 -22 -26 -71 0 -28 4 -39 15 -39 8 0 15 -7 15 -15 0
-11 12 -15 44 -15 63 0 106 -11 106 -26 0 -9 11 -14 31 -14 22 0 32 -6 36 -19
6 -22 61 -31 196 -31 71 0 87 3 87 15 0 8 9 15 20 15 13 0 20 7 20 20 0 13 5
18 16 13 10 -4 17 1 21 16 3 11 11 21 18 21 15 0 25 31 25 78 0 22 5 32 15 32
10 0 15 11 15 35 0 20 -5 35 -12 35 -8 0 -10 50 -5 194 l7 193 -46 7 c-26 3
-66 6 -90 6 -44 0 -44 0 -44 -35z"/>
<path d="M4080 3685 c0 -8 -9 -15 -20 -15 -18 0 -20 -7 -20 -55 0 -42 3 -55
15 -55 10 0 15 -11 15 -35 0 -24 5 -35 15 -35 8 0 15 -7 15 -16 0 -9 9 -18 20
-21 11 -3 20 -11 20 -18 0 -8 14 -16 30 -20 17 -4 30 -13 30 -21 0 -10 12 -14
40 -14 l40 0 1 63 c0 34 2 72 5 85 2 14 -2 25 -11 28 -8 3 -17 21 -21 40 -3
19 -12 34 -20 34 -8 0 -14 9 -14 20 0 11 -7 20 -15 20 -8 0 -15 7 -15 15 0 12
-13 15 -55 15 -42 0 -55 -3 -55 -15z"/>
<path d="M6142 3448 c-2 -10 -10 -18 -17 -18 -9 0 -14 -18 -17 -52 -2 -42 0
-52 14 -56 10 -2 18 -10 18 -18 0 -7 16 -16 36 -20 23 -4 33 -11 30 -19 -3 -9
12 -15 50 -20 37 -4 54 -11 54 -21 0 -10 12 -14 40 -14 29 0 40 4 40 15 0 8 6
15 14 15 17 0 26 22 26 67 0 26 -5 36 -20 40 -11 3 -20 12 -20 19 0 8 -7 14
-15 14 -8 0 -15 9 -15 20 0 13 -7 20 -20 20 -13 0 -20 7 -20 20 0 18 -7 20
-57 21 -32 1 -71 2 -87 3 -20 1 -30 -3 -34 -16z"/>
<path d="M3276 3338 c-3 -7 -7 -63 -10 -124 -6 -104 -5 -112 13 -117 12 -3 19
-13 19 -32 0 -34 16 -45 70 -45 31 0 42 4 42 15 0 8 6 15 14 15 15 0 26 87 26
211 l0 76 -37 7 c-64 10 -133 7 -137 -6z"/>
<path d="M3916 3289 c-3 -17 -6 -58 -6 -90 0 -46 3 -59 15 -59 8 0 15 -9 15
-20 0 -13 7 -20 20 -20 13 0 18 -5 13 -16 -4 -10 1 -17 16 -21 11 -3 21 -11
21 -18 0 -7 9 -15 20 -18 11 -3 20 -12 20 -21 0 -13 11 -16 50 -16 48 0 49 1
56 34 4 24 10 33 20 29 10 -4 14 4 14 31 0 25 -4 36 -15 36 -11 0 -15 11 -15
40 0 29 -4 40 -15 40 -10 0 -15 10 -15 34 0 31 -3 34 -35 40 -19 4 -35 13 -35
20 0 15 -43 26 -100 26 -34 0 -38 -3 -44 -31z"/>
<path d="M3630 3175 c0 -9 -8 -19 -19 -22 -26 -7 -39 -93 -16 -109 8 -6 18
-25 21 -43 4 -17 13 -31 20 -31 9 0 14 -11 14 -29 0 -29 14 -41 51 -41 12 0
19 -7 19 -20 0 -18 7 -20 55 -20 l55 0 0 105 c0 87 -3 105 -15 105 -8 0 -15 9
-15 20 0 11 -6 20 -14 20 -7 0 -16 9 -19 20 -4 15 -14 20 -42 20 -29 0 -36 3
-31 15 3 8 0 15 -7 15 -7 0 -22 3 -34 6 -17 5 -23 2 -23 -11z"/>
<path d="M6165 3091 c-3 -12 -12 -21 -19 -21 -8 0 -16 -19 -20 -52 -9 -81 -8
-88 14 -88 13 0 20 -7 20 -20 0 -11 7 -20 15 -20 8 0 15 -9 15 -20 0 -11 7
-20 15 -20 8 0 15 -7 15 -15 0 -8 9 -15 20 -15 14 0 20 -7 20 -21 0 -18 5 -20
53 -17 l52 3 3 103 c2 86 0 102 -13 102 -8 0 -15 9 -15 20 0 11 -7 20 -15 20
-8 0 -15 7 -15 15 0 8 -7 15 -16 15 -9 0 -18 9 -21 20 -4 15 -14 20 -38 20
-19 0 -40 3 -48 6 -10 3 -18 -2 -22 -15z"/>
<path d="M5480 2944 c0 -9 -9 -18 -20 -21 -17 -4 -20 -14 -20 -54 0 -37 4 -49
15 -49 11 0 15 -11 15 -35 0 -22 6 -38 15 -41 8 -4 15 -12 15 -19 0 -7 9 -15
20 -18 11 -3 20 -12 20 -21 0 -11 9 -16 31 -16 22 0 32 -5 36 -20 7 -25 73
-30 73 -5 0 8 7 15 15 15 10 0 15 10 15 34 0 21 -6 36 -15 40 -11 4 -15 20
-15 56 0 38 -4 50 -15 50 -8 0 -15 9 -15 20 0 11 -7 20 -15 20 -8 0 -15 9 -15
20 0 13 -7 20 -20 20 -11 0 -20 6 -20 14 0 17 -22 26 -66 26 -24 0 -34 -4 -34
-16z"/>
<path d="M5900 2885 c0 -8 -6 -15 -14 -15 -17 0 -26 -43 -26 -121 0 -46 3 -59
15 -59 10 0 15 -11 15 -35 0 -28 4 -35 20 -35 13 0 20 -7 20 -20 0 -16 7 -20
34 -20 25 0 35 -5 39 -20 6 -25 67 -29 67 -5 0 8 6 15 14 15 17 0 26 31 26 98
0 40 -4 52 -15 52 -10 0 -15 11 -15 35 0 23 -5 35 -14 35 -8 0 -17 15 -20 35
-6 31 -11 35 -36 35 -23 0 -30 5 -30 20 0 17 -7 20 -40 20 -29 0 -40 -4 -40
-15z"/>
<path d="M7480 2095 c0 -8 -9 -15 -20 -15 -11 0 -20 -7 -20 -15 0 -8 -7 -15
-15 -15 -8 0 -17 -14 -21 -35 -3 -19 -12 -35 -19 -35 -7 0 -16 -16 -19 -35 -4
-21 -13 -35 -21 -35 -8 0 -15 -9 -15 -20 0 -13 -7 -20 -20 -20 -11 0 -20 -6
-20 -14 0 -7 -9 -16 -20 -19 -11 -3 -20 -12 -20 -21 0 -9 -6 -16 -14 -16 -8 0
-17 -13 -21 -30 -5 -24 -13 -31 -41 -36 -19 -3 -34 -12 -34 -20 0 -8 -9 -14
-20 -14 -11 0 -20 -6 -20 -14 0 -7 -9 -16 -20 -19 -11 -3 -20 -12 -20 -21 0
-9 -7 -16 -15 -16 -8 0 -17 -14 -21 -35 -3 -20 -12 -35 -20 -35 -9 0 -14 -12
-14 -35 0 -24 5 -35 15 -35 8 0 15 -9 15 -20 0 -18 7 -20 74 -20 90 0 136 -8
136 -25 0 -8 21 -15 55 -20 38 -4 55 -11 55 -21 0 -9 11 -14 35 -14 24 0 35 5
35 15 0 12 13 15 55 15 42 0 55 3 55 15 0 8 9 15 20 15 11 0 20 7 20 15 0 8 7
15 15 15 8 0 15 9 15 20 0 13 7 20 19 20 22 0 31 55 31 198 0 76 -3 92 -15 92
-14 0 -15 16 -11 119 5 114 4 119 -16 124 -14 4 -19 11 -14 22 4 12 0 19 -14
22 -11 3 -20 12 -20 19 0 9 -12 14 -35 14 -24 0 -35 -5 -35 -15z"/>
<path d="M7823 1829 c-3 -10 -11 -19 -18 -19 -13 0 -25 -51 -25 -107 0 -31 2
-33 35 -33 27 0 35 -4 35 -19 0 -15 11 -19 68 -24 37 -4 93 -7 124 -7 l57 0 6
44 c8 48 2 66 -21 66 -8 0 -14 7 -14 15 0 8 -7 15 -15 15 -8 0 -15 9 -15 20 0
13 -7 20 -19 20 -30 0 -51 11 -51 26 0 10 -13 14 -42 15 -24 1 -56 3 -72 5
-21 2 -29 -2 -33 -17z"/>
<path d="M5140 1809 c0 -12 -7 -19 -20 -19 -16 0 -20 -7 -20 -31 0 -22 -5 -32
-20 -36 -11 -3 -20 -12 -20 -19 0 -8 -9 -14 -20 -14 -13 0 -20 -7 -20 -20 0
-13 -5 -18 -15 -14 -10 4 -15 0 -15 -15 0 -14 -6 -21 -20 -21 -11 0 -20 -7
-20 -15 0 -8 -9 -15 -20 -15 -13 0 -20 -7 -20 -20 0 -16 -7 -20 -35 -20 -24 0
-35 -5 -35 -15 0 -8 -9 -15 -20 -15 -11 0 -20 -7 -20 -15 0 -10 -11 -15 -35
-15 -24 0 -35 -5 -35 -15 0 -9 -10 -15 -22 -16 -13 -1 -30 -2 -38 -3 -22 -2
-28 -146 -5 -146 8 0 15 -6 15 -14 0 -16 43 -26 114 -26 65 0 96 -9 96 -26 0
-9 12 -14 38 -14 76 0 142 -12 142 -26 0 -8 9 -14 20 -14 11 0 20 7 20 15 0
12 13 15 55 15 42 0 55 3 55 15 0 10 11 15 35 15 23 0 35 5 35 14 0 7 9 16 20
19 14 4 20 14 20 35 0 21 6 31 20 35 18 5 20 14 20 111 0 87 -3 106 -15 106
-13 0 -14 17 -8 119 5 92 3 120 -7 126 -7 5 -55 9 -107 11 -86 3 -93 1 -93
-17z"/>
<path d="M5560 1616 c0 -7 -9 -16 -20 -19 -17 -4 -20 -14 -20 -56 0 -39 4 -51
15 -51 8 0 15 -9 15 -20 0 -13 7 -20 20 -20 13 0 20 -7 20 -20 0 -11 7 -20 15
-20 8 0 15 -7 15 -15 0 -10 16 -16 50 -21 31 -4 50 -12 50 -19 0 -15 54 -30
70 -20 5 3 10 13 10 21 0 8 7 14 15 14 8 0 15 7 15 15 0 8 -7 15 -15 15 -11 0
-15 11 -15 40 0 29 -4 40 -15 40 -10 0 -15 11 -15 35 0 28 -4 35 -20 35 -13 0
-20 7 -20 20 0 11 -7 20 -15 20 -8 0 -15 6 -15 14 0 14 -49 26 -107 26 -22 0
-33 -5 -33 -14z"/>
<path d="M7880 1465 c0 -8 -9 -15 -20 -15 -18 0 -20 -7 -20 -70 0 -56 3 -70
15 -70 8 0 15 -9 15 -20 0 -13 7 -20 20 -20 13 0 18 -5 13 -16 -4 -10 1 -17
16 -21 11 -3 21 -11 21 -19 0 -7 16 -16 35 -20 20 -3 35 -12 35 -20 0 -9 12
-14 35 -14 24 0 35 5 35 15 0 8 9 15 20 15 18 0 20 7 20 55 0 42 -3 55 -15 55
-10 0 -15 11 -15 35 0 28 -4 35 -20 35 -13 0 -18 5 -13 16 4 10 -1 17 -16 21
-11 3 -21 11 -21 19 0 7 -16 16 -35 20 -20 3 -35 12 -35 20 0 9 -12 14 -35 14
-24 0 -35 -5 -35 -15z"/>
<path d="M7650 1225 c0 -8 -7 -15 -15 -15 -8 0 -15 -7 -15 -15 0 -8 -9 -15
-20 -15 -17 0 -20 -7 -20 -40 0 -29 4 -40 15 -40 10 0 15 -11 15 -35 0 -23 5
-35 14 -35 8 0 17 -15 20 -35 6 -31 11 -35 36 -35 23 0 30 -5 30 -20 0 -17 7
-20 53 -21 28 -1 59 -2 67 -3 24 -2 30 15 30 97 0 62 -3 77 -15 77 -8 0 -15 9
-15 20 0 11 -7 20 -15 20 -8 0 -15 9 -15 20 0 13 -7 20 -20 20 -11 0 -20 6
-20 14 0 15 -21 26 -51 26 -10 0 -19 7 -19 15 0 8 -9 15 -20 15 -11 0 -20 -7
-20 -15z"/>
<path d="M5570 1215 c0 -10 -11 -15 -35 -15 l-35 0 0 -55 c0 -42 3 -55 15 -55
10 0 15 -11 15 -35 0 -28 4 -35 20 -35 13 0 20 -7 20 -20 0 -16 7 -20 30 -20
19 0 30 -5 30 -14 0 -18 32 -26 112 -26 l67 0 7 47 c5 37 3 49 -10 58 -9 7
-19 26 -22 44 -4 17 -13 31 -20 31 -8 0 -14 7 -14 15 0 9 -7 18 -15 21 -8 4
-15 12 -15 19 0 8 -17 16 -39 20 -29 5 -38 11 -34 21 4 11 -5 14 -36 14 -30 0
-41 -4 -41 -15z"/>
<path d="M7190 1213 c0 -10 -3 -41 -6 -69 -6 -46 -4 -52 15 -57 11 -3 21 -12
21 -21 0 -9 7 -16 15 -16 8 0 15 -9 15 -20 0 -11 7 -20 15 -20 8 0 15 -6 15
-14 0 -8 15 -17 35 -20 19 -4 35 -13 35 -20 0 -13 42 -26 85 -26 21 0 23 5 27
55 3 47 0 55 -14 55 -14 0 -18 8 -18 35 0 24 -5 35 -15 35 -10 0 -15 10 -15
34 0 25 -5 35 -20 39 -11 3 -20 12 -20 20 0 17 -41 27 -116 27 -45 0 -54 -3
-54 -17z"/>
<path d="M4920 1070 c0 -5 -6 -10 -14 -10 -17 0 -26 -44 -26 -126 0 -50 3 -64
15 -64 10 0 15 -11 15 -35 0 -28 4 -35 20 -35 13 0 20 -7 20 -20 0 -17 7 -20
48 -21 44 -1 86 1 88 4 1 1 4 48 8 103 6 96 5 102 -14 107 -11 3 -20 9 -19 14
5 27 -3 53 -16 53 -8 0 -15 9 -15 20 0 18 -7 20 -55 20 -30 0 -55 -4 -55 -10z"/>
<path d="M5280 984 c0 -9 -9 -18 -20 -21 -17 -4 -20 -14 -20 -54 0 -35 4 -51
15 -55 9 -4 15 -19 15 -40 0 -32 2 -34 35 -34 28 0 35 -4 35 -20 0 -16 7 -20
35 -20 25 0 33 -4 29 -14 -6 -16 24 -26 79 -26 l37 0 0 90 c0 73 -3 90 -15 90
-8 0 -15 9 -15 20 0 13 -7 20 -20 20 -11 0 -20 6 -20 14 0 8 -13 17 -30 21
-16 4 -30 12 -30 20 0 13 -42 25 -86 25 -15 0 -24 -6 -24 -16z"/>
<path d="M9400 934 c0 -9 -9 -18 -20 -21 -14 -4 -20 -14 -20 -32 0 -41 -11
-71 -26 -71 -8 0 -14 -10 -14 -24 0 -44 -12 -86 -25 -86 -7 0 -16 -16 -19 -35
-4 -21 -13 -35 -21 -35 -8 0 -15 -6 -15 -13 0 -7 -9 -20 -20 -30 -11 -9 -20
-26 -20 -37 0 -13 -7 -20 -20 -20 -14 0 -20 -7 -20 -21 0 -14 -5 -19 -14 -16
-9 4 -17 -2 -21 -14 -4 -10 -12 -19 -20 -19 -7 0 -15 -9 -18 -20 -3 -12 -11
-18 -20 -15 -11 5 -16 -11 -21 -81 -4 -47 -5 -88 -3 -91 6 -5 323 -22 425 -23
57 0 72 3 72 15 0 8 8 15 19 15 10 0 21 9 24 20 3 11 12 20 21 20 12 0 16 10
16 35 0 28 4 35 20 35 19 0 20 7 20 99 0 79 -3 100 -15 105 -9 3 -15 19 -15
41 0 24 -4 35 -15 35 -11 0 -15 11 -15 40 0 29 -4 40 -15 40 -12 0 -15 13 -15
55 0 42 -3 55 -15 55 -10 0 -15 11 -15 35 0 28 -4 35 -20 35 -12 0 -17 5 -14
14 6 15 -23 26 -73 26 -24 0 -33 -5 -33 -16z"/>
<path d="M9776 692 c-4 -31 -4 -72 0 -90 6 -28 10 -32 40 -32 22 0 34 -5 34
-14 0 -18 31 -26 108 -26 47 0 64 4 68 15 4 9 19 15 40 15 l34 0 0 55 c0 48
-2 55 -20 55 -12 0 -17 5 -14 14 4 9 -6 16 -30 20 -20 4 -36 13 -36 20 0 17
-52 26 -146 26 l-71 0 -7 -58z"/>
<path d="M9906 359 c-3 -17 -6 -57 -6 -89 l0 -57 53 -7 c28 -3 94 -6 145 -6
72 0 92 3 92 14 0 7 -8 16 -19 19 -12 3 -18 13 -18 32 0 15 -8 32 -17 37 -9 5
-16 15 -16 23 0 8 -15 17 -35 21 -19 3 -35 12 -35 19 0 7 -19 15 -46 19 -83
11 -91 9 -98 -25z"/>
</g>
</svg>
