<?xml version="1.0" standalone="no"?>
<!DOCTYPE svg PUBLIC "-//W3C//DTD SVG 20010904//EN"
 "http://www.w3.org/TR/2001/REC-SVG-20010904/DTD/svg10.dtd">
<svg version="1.0" xmlns="http://www.w3.org/2000/svg"
 width="1482.000000pt" height="1416.000000pt" viewBox="0 0 1482.000000 1416.000000"
 preserveAspectRatio="xMidYMid meet">

<g transform="translate(0.000000,1416.000000) scale(0.100000,-0.100000)"
fill="#000000" stroke="none">
<path d="M12751 14126 c-22 -14 -35 -32 -37 -49 -2 -15 -6 -38 -7 -52 -2 -14
-7 -28 -10 -31 -3 -4 1 -20 9 -36 8 -16 13 -35 11 -41 -7 -19 22 -67 41 -67 9
0 23 -9 30 -20 6 -11 18 -17 26 -14 8 3 17 1 20 -5 7 -11 94 37 116 64 9 11
-5 40 -72 144 -46 72 -85 130 -88 130 -3 0 -20 -10 -39 -23z"/>
<path d="M12529 13790 c-8 -5 -22 -7 -31 -4 -21 6 -119 -57 -113 -73 2 -7 0
-15 -6 -19 -6 -3 -8 -12 -5 -19 3 -8 -1 -19 -9 -25 -9 -7 -12 -27 -11 -54 4
-58 81 -179 108 -170 10 3 18 0 18 -6 0 -8 6 -8 21 0 11 7 27 9 36 6 18 -7 76
32 67 46 -3 5 3 16 14 24 12 8 19 21 16 29 -4 8 -1 15 6 15 7 0 10 7 7 15 -4
8 -3 16 1 19 7 4 7 30 -1 101 -4 38 -34 85 -54 85 -9 0 -23 9 -32 19 -12 14
-22 17 -32 11z"/>
<path d="M12957 13684 c-15 -8 -32 -12 -37 -9 -14 9 -71 -27 -66 -41 3 -7 -10
-23 -29 -35 -18 -13 -31 -28 -28 -35 2 -7 -4 -18 -14 -25 -10 -8 -19 -27 -21
-44 -2 -16 -10 -37 -18 -46 -8 -8 -14 -21 -14 -27 0 -6 -11 -19 -25 -30 -14
-11 -25 -26 -25 -33 0 -8 -34 -36 -74 -63 -42 -28 -72 -55 -69 -62 2 -6 -5
-19 -17 -27 -11 -8 -20 -18 -19 -23 1 -5 1 -11 -1 -14 -8 -24 -7 -68 4 -89 7
-14 11 -32 9 -39 -6 -15 43 -82 60 -82 7 0 18 -9 25 -20 7 -12 17 -18 23 -15
5 4 15 3 22 -2 19 -15 109 -8 145 11 20 11 32 12 32 5 0 -7 7 -8 18 -4 24 10
82 15 82 7 0 -4 27 -7 60 -8 42 -1 66 -6 79 -19 11 -9 24 -14 30 -11 5 4 12 2
16 -4 4 -6 11 -8 16 -4 6 3 17 -3 25 -15 9 -12 20 -19 25 -15 5 3 15 2 22 -3
7 -5 23 -8 37 -6 14 1 39 4 56 6 40 5 123 57 117 73 -2 6 4 18 14 25 22 17 25
34 22 133 -1 33 -75 150 -89 141 -12 -8 -63 70 -57 87 2 7 -7 32 -20 54 -13
23 -22 46 -21 51 5 13 -153 254 -162 248 -5 -3 -11 -1 -15 5 -4 6 -11 8 -16 5
-5 -4 -14 -3 -21 1 -21 14 -52 12 -81 -2z"/>
<path d="M12692 12490 c-37 -25 -56 -45 -58 -61 -7 -47 -13 -84 -14 -84 -1 0
-3 -14 -5 -31 -4 -24 4 -45 32 -88 21 -32 43 -54 50 -52 7 3 15 1 18 -4 3 -5
12 -7 19 -4 8 3 17 1 21 -5 9 -15 130 64 130 84 0 9 8 23 18 30 10 7 15 19 11
29 -3 9 -1 16 5 16 7 0 8 8 1 25 -5 14 -7 31 -4 38 8 21 -73 138 -91 131 -8
-3 -15 -2 -15 3 0 23 -66 8 -118 -27z"/>
<path d="M13110 12409 c-41 -26 -60 -45 -60 -59 0 -11 -5 -20 -11 -20 -5 0 -8
-4 -5 -9 3 -4 1 -23 -4 -41 -6 -22 -6 -39 1 -53 8 -14 8 -21 0 -26 -15 -10 43
-99 71 -110 64 -23 74 -22 138 20 37 23 60 45 57 53 -3 7 3 18 14 24 10 7 16
18 13 26 -3 8 -1 17 5 21 8 4 8 12 1 26 -6 11 -8 24 -5 29 7 11 -18 62 -52
106 -15 20 -38 35 -63 42 -38 9 -44 7 -100 -29z"/>
<path d="M12400 12170 c-8 -5 -23 -7 -32 -4 -22 7 -98 -44 -92 -61 3 -7 -4
-19 -16 -25 -11 -6 -18 -15 -15 -21 4 -5 3 -15 -2 -21 -4 -7 -8 -24 -8 -38 0
-14 -4 -30 -8 -37 -15 -23 84 -166 108 -156 8 3 15 0 15 -6 0 -8 10 -7 29 4
17 8 31 11 33 5 2 -5 18 -1 36 10 18 11 30 25 26 31 -3 6 4 17 16 26 12 8 19
21 17 27 -3 7 3 18 14 24 10 7 16 18 13 26 -3 8 -1 17 5 21 8 4 7 13 -4 27 -9
13 -11 26 -6 32 12 14 -48 116 -68 116 -8 0 -22 7 -30 14 -11 10 -21 12 -31 6z"/>
<path d="M12787 12008 c-83 -49 -127 -84 -127 -101 0 -10 -7 -20 -15 -23 -8
-4 -15 -15 -15 -25 0 -10 -9 -24 -19 -31 -10 -6 -17 -17 -14 -24 2 -6 -9 -21
-26 -33 -17 -12 -30 -27 -28 -34 1 -6 -43 -41 -98 -78 -55 -37 -100 -74 -101
-81 0 -7 -4 -20 -8 -29 -4 -9 -8 -28 -10 -43 -1 -14 -5 -29 -9 -32 -15 -15
100 -178 128 -181 60 -7 76 -10 81 -16 4 -3 15 -2 26 4 11 6 26 8 35 5 8 -3
24 -1 36 5 16 9 22 9 25 1 2 -8 10 -9 20 -4 14 7 77 8 77 2 0 -1 16 -3 35 -6
19 -2 40 -11 47 -20 6 -9 16 -13 22 -10 5 4 13 1 16 -5 4 -5 13 -8 21 -5 7 3
18 -4 24 -14 6 -11 19 -20 30 -20 10 0 23 -7 27 -15 5 -8 23 -16 41 -18 18 -2
35 -7 38 -10 4 -3 15 -2 26 4 11 6 26 8 34 5 21 -8 114 54 114 76 0 9 7 21 15
25 8 5 16 23 18 41 2 18 7 35 10 38 3 4 2 15 -4 26 -6 10 -8 26 -5 36 3 10
-22 59 -64 122 -40 62 -65 109 -59 114 5 6 0 23 -12 42 -12 21 -16 35 -9 39 7
4 7 12 -1 26 -5 11 -8 25 -6 32 2 7 -2 24 -9 38 -7 14 -12 35 -11 46 1 26 -44
94 -60 90 -7 -1 -18 6 -25 16 -7 9 -28 18 -45 20 -18 1 -33 6 -33 11 0 4 -9 6
-20 3 -11 -3 -20 -2 -20 2 0 15 -61 7 -93 -11z"/>
<path d="M13322 11937 c-27 -18 -47 -37 -45 -44 2 -6 -4 -17 -14 -25 -22 -16
-24 -29 -22 -133 0 -33 58 -127 74 -121 6 2 18 -3 27 -12 15 -12 23 -13 47 -2
16 6 34 9 39 6 12 -7 54 23 47 34 -3 5 8 19 25 32 17 12 28 28 26 35 -3 7 -1
15 5 19 6 3 8 12 5 20 -3 7 -1 16 4 19 7 4 6 13 0 25 -5 10 -8 25 -5 32 8 20
-73 141 -89 135 -8 -3 -17 -3 -20 0 -17 17 -59 8 -104 -20z"/>
<path d="M14318 11405 c-36 -23 -55 -41 -52 -49 3 -8 -3 -20 -13 -27 -19 -14
-22 -67 -11 -154 6 -38 37 -87 51 -78 5 3 15 -1 21 -9 25 -34 60 -30 135 18
46 30 70 51 67 60 -3 7 -1 16 5 20 6 3 8 12 5 19 -2 7 -2 16 2 20 4 3 7 30 7
58 1 58 -33 127 -62 127 -8 0 -21 7 -27 16 -9 12 -17 13 -38 5 -17 -6 -28 -6
-30 0 -2 5 -29 -7 -60 -26z"/>
<path d="M14665 11239 c4 -5 0 -18 -8 -27 -19 -23 -28 -64 -17 -82 5 -8 5 -19
0 -25 -15 -18 65 -135 92 -137 42 -2 47 -3 53 -10 16 -16 35 6 35 40 0 28 -16
60 -71 144 -40 59 -76 108 -81 108 -5 0 -6 -5 -3 -11z"/>
<path d="M13997 11098 c-10 -5 -25 -7 -34 -4 -18 7 -73 -30 -73 -49 0 -8 -11
-22 -26 -31 -14 -9 -23 -23 -20 -30 3 -7 1 -16 -5 -20 -6 -3 -8 -12 -5 -20 3
-7 1 -16 -4 -19 -7 -4 -6 -13 0 -25 5 -10 7 -25 4 -34 -7 -19 57 -118 73 -112
7 3 19 -4 27 -16 14 -20 16 -20 40 -5 16 11 27 13 31 7 9 -14 65 20 65 40 0 8
13 23 28 34 15 10 28 26 29 35 1 9 3 33 4 54 2 20 7 37 12 37 10 0 -32 77 -70
128 -13 18 -29 29 -35 26 -6 -4 -13 -2 -17 4 -4 7 -12 7 -24 0z"/>
<path d="M14405 10920 c-19 -13 -32 -16 -36 -8 -9 13 -77 -32 -72 -48 2 -7
-10 -22 -27 -34 -16 -12 -30 -27 -30 -35 0 -7 -10 -22 -23 -32 -13 -10 -22
-23 -20 -30 2 -6 -10 -21 -27 -33 -16 -12 -30 -28 -30 -35 0 -18 -123 -97
-130 -84 -7 11 -45 -14 -45 -30 0 -6 -12 -21 -27 -34 -16 -13 -28 -34 -30 -52
-2 -16 -7 -33 -12 -36 -4 -4 -3 -15 2 -26 6 -11 9 -28 7 -39 -6 -23 66 -130
84 -126 8 2 20 -6 28 -17 7 -11 20 -18 27 -15 8 3 17 1 21 -5 4 -8 12 -8 26
-1 11 6 24 8 29 5 5 -3 19 -1 31 6 12 6 24 7 28 3 3 -5 20 -9 36 -9 17 0 34
-2 40 -4 5 -3 23 -6 40 -8 16 -2 31 -7 33 -12 2 -5 12 -7 22 -4 11 3 20 1 20
-3 0 -5 15 -10 33 -11 18 -1 39 -11 48 -22 9 -11 20 -17 24 -13 4 4 17 -5 29
-20 13 -17 34 -29 52 -31 16 -2 36 -7 43 -11 7 -4 15 -5 18 -2 3 3 11 1 18 -4
8 -7 38 7 96 46 l85 56 3 75 c2 73 2 75 -44 146 -25 39 -41 73 -35 75 6 2 1
21 -14 46 -14 24 -25 51 -26 62 -1 34 -10 138 -14 172 -5 37 -70 142 -88 142
-6 0 -19 7 -28 15 -9 8 -31 16 -48 18 -18 2 -35 6 -38 10 -3 3 -12 3 -20 0 -8
-3 -14 0 -14 6 0 16 -11 14 -45 -9z"/>
<path d="M12421 10554 c-12 -9 -31 -14 -41 -11 -22 6 -60 -18 -60 -38 0 -8
-11 -22 -26 -31 -14 -9 -23 -23 -20 -30 3 -7 -3 -19 -13 -26 -18 -13 -19 -27
-7 -116 5 -41 33 -85 50 -79 7 3 18 -3 24 -14 9 -15 17 -17 36 -10 13 5 27 6
32 1 12 -11 134 70 134 89 0 8 7 22 16 32 9 11 17 38 18 66 2 41 -4 57 -38
110 -23 35 -46 61 -52 59 -6 -3 -16 0 -21 5 -5 5 -18 2 -32 -7z"/>
<path d="M12786 10344 c-13 -9 -23 -10 -31 -4 -14 12 -85 -34 -85 -55 0 -8 -9
-20 -20 -28 -13 -9 -18 -20 -14 -31 4 -9 1 -16 -6 -16 -7 0 -10 -7 -6 -15 3
-8 2 -15 -3 -15 -11 0 -10 -62 1 -77 5 -7 7 -17 3 -22 -8 -13 13 -53 24 -47 5
3 17 -4 27 -15 10 -11 24 -17 31 -15 7 3 13 1 13 -5 0 -6 7 -8 17 -5 9 4 19 2
23 -3 9 -15 130 67 130 87 0 10 9 23 20 30 11 7 17 18 14 27 -4 8 -2 15 3 15
13 0 9 61 -6 88 -6 12 -9 27 -6 32 8 14 -16 49 -31 43 -6 -2 -18 5 -26 16 -8
12 -18 18 -21 15 -4 -4 -12 -2 -19 4 -9 7 -18 6 -32 -4z"/>
<path d="M11871 10294 c-46 -30 -70 -51 -67 -60 3 -7 -5 -20 -16 -28 -12 -9
-19 -19 -15 -22 4 -4 2 -13 -4 -20 -7 -9 -7 -19 1 -34 6 -11 8 -25 5 -31 -11
-17 55 -109 79 -111 35 -2 40 -3 52 -10 6 -4 42 13 81 38 68 44 71 48 84 103
8 31 13 63 12 71 -1 8 2 17 7 20 14 9 -59 116 -78 116 -9 0 -29 3 -43 7 -21 5
-41 -3 -98 -39z"/>
<path d="M12283 10050 c-19 -11 -34 -15 -40 -9 -12 12 -96 -47 -88 -61 3 -6
-40 -40 -96 -76 -62 -40 -104 -62 -108 -55 -4 7 -17 4 -36 -9 -18 -12 -33 -16
-40 -10 -16 14 -135 -64 -135 -89 0 -10 -7 -22 -16 -25 -9 -3 -14 -12 -11 -20
3 -7 1 -18 -5 -24 -7 -7 -6 -16 1 -29 6 -13 7 -23 0 -30 -15 -15 86 -164 106
-157 8 4 15 1 15 -6 0 -7 7 -10 15 -7 8 4 17 3 19 -2 3 -4 21 -7 41 -6 19 0
35 -3 35 -7 0 -4 8 -8 19 -8 10 0 24 -6 31 -14 6 -8 18 -12 26 -9 8 3 14 0 14
-7 0 -7 6 -10 14 -7 8 3 22 -3 31 -13 9 -10 22 -17 29 -14 6 2 20 -10 30 -26
10 -18 24 -29 31 -26 8 3 28 -18 50 -51 21 -31 42 -53 49 -50 7 3 18 -4 25
-15 7 -11 19 -17 26 -14 8 3 16 2 19 -2 3 -4 29 -8 58 -7 43 0 64 7 105 33 32
21 50 38 47 47 -3 7 4 19 16 25 11 6 18 15 16 19 -3 5 -1 23 4 41 6 22 6 39
-2 53 -8 15 -8 22 0 25 6 2 2 17 -10 39 -12 19 -23 49 -25 67 -8 66 -8 91 1
97 4 4 3 15 -3 26 -7 14 -7 31 -1 53 5 18 7 36 5 41 -3 4 -1 10 4 14 6 3 8 12
4 20 -3 8 -1 15 5 15 12 0 9 60 -3 80 -4 7 -3 15 3 19 15 9 -57 121 -74 114
-6 -2 -18 5 -26 16 -8 12 -18 18 -21 14 -4 -3 -16 2 -27 12 -11 10 -23 15 -27
12 -3 -4 -12 -2 -20 5 -7 6 -16 8 -20 5 -3 -4 -11 -3 -18 3 -7 6 -22 3 -42
-10z"/>
<path d="M12762 9787 c-35 -24 -60 -47 -58 -54 3 -7 -4 -19 -15 -26 -12 -9
-17 -20 -13 -31 4 -9 1 -16 -6 -16 -7 0 -10 -7 -7 -15 4 -8 2 -17 -4 -20 -6
-4 -1 -20 11 -40 11 -18 17 -40 14 -49 -4 -10 -1 -16 9 -16 9 0 25 -12 37 -27
34 -43 71 -36 175 34 43 28 53 41 63 79 7 25 10 49 7 54 -3 4 0 10 6 12 9 3 9
10 0 26 -7 12 -9 27 -6 32 9 15 -27 71 -42 66 -7 -3 -19 4 -27 16 -13 19 -19
20 -41 10 -15 -7 -25 -8 -25 -2 0 16 -12 11 -78 -33z"/>
<path d="M10167 9314 c-38 -25 -67 -50 -64 -57 2 -6 -5 -19 -16 -27 -17 -14
-18 -20 -8 -38 7 -12 9 -27 6 -33 -10 -14 44 -92 59 -86 7 3 18 -3 24 -13 9
-16 22 -18 72 -16 50 3 70 10 115 40 30 20 55 42 55 50 0 7 7 19 15 26 9 7 14
19 11 26 -3 7 -1 16 4 19 6 4 6 14 -1 26 -5 11 -8 25 -6 32 6 18 -13 49 -27
44 -7 -3 -18 4 -25 15 -7 11 -19 17 -26 14 -8 -3 -17 -1 -21 5 -3 6 -12 8 -20
5 -8 -3 -14 -2 -14 2 0 5 -15 8 -33 9 -22 1 -53 -13 -100 -43z"/>
<path d="M13910 9350 c-8 -5 -22 -7 -31 -5 -20 7 -142 -72 -134 -86 4 -6 -1
-16 -10 -23 -10 -7 -19 -25 -21 -39 -1 -15 -5 -35 -8 -45 -9 -27 68 -144 89
-136 8 3 15 2 15 -4 0 -6 16 -9 35 -8 43 4 168 83 161 102 -3 7 4 20 15 27 12
9 17 20 13 31 -3 9 -1 16 5 16 8 0 9 6 2 18 -6 11 -9 28 -9 39 3 28 -41 95
-58 89 -8 -3 -20 3 -26 14 -14 23 -17 23 -38 10z"/>
<path d="M10735 9203 c-16 -9 -39 -17 -50 -18 -11 -1 -23 -3 -27 -4 -5 0 -8
-8 -8 -16 0 -8 -14 -24 -30 -37 -17 -12 -28 -28 -26 -35 3 -7 1 -15 -4 -18 -5
-3 -7 -12 -4 -19 3 -8 1 -17 -5 -20 -15 -10 57 -116 74 -110 7 3 16 1 19 -5 4
-6 13 -8 21 -4 8 3 15 1 15 -4 0 -8 22 -8 96 0 37 4 94 42 94 62 0 8 11 22 26
31 14 9 23 23 20 30 -3 7 -1 16 4 19 6 4 2 22 -9 43 -10 20 -16 43 -13 51 3 8
0 11 -6 7 -6 -3 -21 7 -34 23 -25 31 -65 45 -88 31 -8 -5 -19 -5 -25 0 -6 5
-23 2 -40 -7z"/>
<path d="M13317 9154 c-31 -20 -54 -40 -51 -46 3 -5 -3 -16 -14 -24 -12 -8
-19 -21 -16 -29 3 -7 -3 -19 -14 -26 -16 -10 -18 -17 -11 -32 6 -10 8 -25 5
-32 -2 -7 10 -37 28 -66 28 -43 39 -53 67 -56 19 -3 39 -4 44 -4 78 9 106 19
103 36 -2 7 14 26 34 43 21 16 35 32 32 35 -3 3 -2 12 2 19 5 7 9 36 10 65 1
41 -4 60 -26 92 -14 23 -29 38 -33 35 -4 -4 -12 -3 -19 3 -7 5 -26 9 -43 8
-16 -1 -32 2 -36 7 -3 4 -31 -8 -62 -28z"/>
<path d="M14267 9104 c-3 -3 -19 -7 -36 -8 -32 -2 -163 -85 -155 -98 3 -4 2
-14 -2 -20 -9 -13 -10 -18 -17 -88 -6 -50 26 -125 50 -116 7 3 15 1 19 -5 3
-6 12 -8 19 -5 7 2 16 2 19 -1 3 -4 17 -7 31 -9 31 -3 149 71 142 90 -3 7 4
18 15 25 11 7 17 19 14 26 -3 8 -2 17 3 19 4 3 6 22 4 43 -1 21 -3 47 -3 58
-1 27 -29 67 -41 59 -6 -3 -17 3 -25 15 -15 21 -26 26 -37 15z"/>
<path d="M9903 9015 c-16 -11 -22 -12 -25 -3 -3 8 -26 -1 -64 -25 -57 -34
-106 -77 -89 -77 4 0 2 -7 -5 -15 -6 -8 -9 -19 -6 -24 4 -5 2 -12 -3 -16 -6
-3 -8 -12 -5 -19 3 -8 1 -17 -5 -20 -7 -4 -3 -18 9 -38 10 -17 16 -37 13 -44
-7 -19 23 -64 42 -64 20 0 97 -122 85 -134 -5 -5 -2 -19 7 -33 9 -14 18 -38
20 -54 1 -16 4 -42 6 -57 2 -16 7 -33 10 -39 4 -7 3 -14 -3 -18 -7 -4 -7 -13
1 -26 6 -11 8 -28 5 -36 -8 -19 72 -145 86 -137 5 3 16 -3 24 -15 9 -12 19
-19 23 -16 5 2 23 0 41 -5 37 -11 70 3 154 64 39 28 50 41 53 68 2 18 10 38
18 44 8 6 15 18 15 26 0 9 7 21 15 28 8 7 15 18 15 26 0 7 13 22 30 34 16 12
29 26 27 32 -1 6 30 33 68 60 39 27 70 55 70 63 0 8 9 21 19 28 11 8 16 19 12
25 -3 6 -2 13 4 17 6 4 8 10 5 14 -2 5 0 23 5 41 7 24 5 40 -6 61 -8 16 -12
34 -9 39 9 15 -33 80 -59 91 -27 13 -60 32 -77 46 -21 16 -62 23 -79 13 -8 -5
-19 -6 -24 -3 -15 10 -59 11 -77 2 -9 -5 -19 -5 -23 -2 -3 3 -16 8 -28 9 -13
2 -34 5 -48 7 -14 2 -31 7 -38 11 -7 4 -16 4 -22 1 -5 -3 -10 -1 -10 5 0 7 -6
10 -14 7 -8 -3 -22 3 -31 13 -10 11 -22 17 -27 14 -5 -4 -16 3 -24 15 -9 12
-20 19 -25 15 -5 -3 -16 -1 -23 5 -9 7 -18 6 -33 -4z"/>
<path d="M13700 8860 c-21 -11 -37 -14 -41 -8 -3 5 -57 -24 -120 -65 -142 -92
-156 -100 -164 -87 -4 6 -15 4 -30 -6 -15 -10 -25 -12 -30 -5 -4 8 -12 8 -26
1 -11 -6 -24 -8 -30 -5 -14 9 -120 -57 -115 -71 3 -7 -4 -20 -14 -29 -11 -10
-17 -21 -15 -26 3 -4 0 -11 -6 -14 -5 -4 -8 -13 -5 -21 3 -7 2 -15 -2 -18 -6
-4 -7 -31 -3 -67 1 -4 20 -35 42 -68 26 -39 47 -60 55 -57 7 3 16 1 20 -5 3
-6 12 -8 20 -5 8 3 14 1 14 -4 0 -6 8 -10 19 -10 10 0 24 -6 31 -14 6 -8 18
-12 26 -9 8 3 14 0 14 -7 0 -7 6 -10 14 -7 8 3 22 -3 31 -13 9 -10 22 -17 28
-14 7 2 21 -9 32 -26 11 -17 25 -28 32 -26 6 3 35 -31 63 -75 29 -43 56 -77
60 -74 4 2 18 -7 30 -20 13 -14 32 -25 42 -25 10 0 18 -3 18 -7 0 -12 52 -13
72 -2 10 6 19 5 23 -1 7 -12 115 58 115 75 0 7 7 18 15 25 9 7 14 19 11 26 -3
7 -1 16 5 19 5 4 7 11 4 16 -4 5 -3 15 2 21 11 19 10 50 -5 81 -7 15 -10 32
-7 37 3 5 1 18 -4 29 -7 12 -7 30 -1 51 6 21 6 39 0 51 -7 12 -7 20 1 24 6 4
8 13 5 21 -3 8 3 19 13 26 11 7 16 19 13 30 -2 10 0 18 5 18 5 0 9 8 10 18 8
104 7 126 -5 144 -10 14 -11 22 -4 27 14 8 -24 71 -44 71 -7 0 -23 13 -35 30
-12 16 -27 26 -32 23 -6 -3 -16 2 -22 11 -7 9 -28 18 -46 19 -19 1 -36 5 -39
9 -3 3 -21 -2 -40 -12z"/>
<path d="M10930 8820 c-8 -5 -22 -7 -31 -5 -21 7 -161 -85 -155 -102 3 -7 1
-15 -4 -18 -5 -3 -7 -12 -4 -19 3 -8 1 -17 -5 -21 -7 -4 -6 -14 5 -30 11 -17
12 -24 3 -27 -9 -3 -8 -10 2 -26 8 -12 19 -20 26 -18 7 3 19 -4 27 -16 8 -11
19 -17 25 -14 5 4 13 1 16 -5 4 -5 13 -8 21 -5 7 3 16 1 19 -4 4 -6 14 -6 26
1 11 6 27 8 34 5 8 -3 41 13 73 34 59 38 71 56 77 120 0 9 4 20 7 25 9 15 -39
90 -58 90 -9 0 -22 8 -29 18 -7 10 -19 15 -29 11 -9 -3 -16 -1 -16 5 0 13 -10
14 -30 1z"/>
<path d="M14138 8538 c-33 -22 -56 -43 -52 -49 3 -6 -3 -17 -15 -25 -12 -9
-19 -19 -16 -23 2 -5 0 -23 -5 -41 -7 -23 -5 -40 5 -59 7 -15 13 -36 12 -46
-1 -11 3 -19 10 -18 6 2 23 -11 37 -28 14 -17 31 -27 37 -24 6 4 23 8 39 9 36
3 162 86 156 103 -3 7 4 19 15 26 12 9 17 20 13 31 -4 9 -1 16 6 16 9 0 8 7
-3 24 -11 16 -12 27 -5 34 13 13 -40 95 -58 88 -7 -3 -16 -1 -20 5 -3 6 -12 8
-20 5 -8 -3 -14 -2 -14 3 0 21 -67 5 -122 -31z"/>
<path d="M10512 8354 c-30 -19 -50 -39 -46 -45 3 -6 -4 -17 -16 -26 -12 -8
-19 -21 -16 -29 3 -7 1 -16 -4 -19 -6 -4 -6 -13 0 -26 6 -11 8 -24 5 -29 -9
-15 27 -70 47 -70 9 0 21 -6 25 -13 11 -19 51 -27 79 -17 16 6 24 6 24 -1 0
-12 74 28 128 69 17 13 32 29 32 35 0 6 7 18 16 28 12 13 13 22 5 37 -6 12 -7
22 -1 28 11 11 -30 75 -45 70 -5 -1 -17 6 -26 16 -10 10 -21 18 -25 17 -5 -1
-11 -1 -14 1 -20 7 -66 7 -80 0 -10 -5 -21 -5 -26 0 -5 4 -32 -7 -62 -26z"/>
<path d="M12020 7991 c-38 -24 -67 -48 -64 -53 3 -4 2 -14 -3 -20 -22 -37 1
-169 27 -153 5 3 15 -2 23 -10 9 -8 31 -17 49 -19 18 -3 35 -5 38 -6 3 -1 14
-3 25 -4 43 -3 169 77 172 109 7 56 10 72 15 81 8 13 -44 95 -57 90 -5 -2 -18
3 -27 12 -10 8 -40 15 -73 16 -51 2 -63 -2 -125 -43z"/>
<path d="M12536 7850 c-45 -29 -74 -55 -70 -61 3 -6 -3 -17 -15 -25 -17 -12
-19 -19 -10 -35 6 -11 8 -27 5 -36 -7 -17 31 -76 43 -68 5 2 16 -4 26 -15 10
-11 21 -18 25 -15 4 2 22 0 40 -5 20 -6 39 -6 50 0 10 6 21 5 26 0 12 -12 114
55 114 74 0 7 7 19 15 26 9 7 14 19 11 25 -2 7 0 17 6 23 7 7 6 17 -1 31 -8
15 -9 21 -1 21 15 0 -21 61 -40 68 -8 3 -22 11 -30 17 -22 18 -63 26 -80 15
-8 -5 -19 -5 -25 0 -7 6 -39 -9 -89 -40z"/>
<path d="M8080 7795 c-13 -7 -30 -11 -37 -8 -17 7 -63 -24 -63 -41 0 -8 -11
-23 -25 -33 -17 -12 -26 -29 -28 -51 -1 -17 -6 -32 -11 -32 -4 0 -5 -8 -2 -17
4 -9 2 -19 -4 -23 -6 -4 5 -29 26 -63 20 -31 39 -55 43 -52 5 2 23 0 41 -5 24
-7 40 -5 61 6 16 8 34 12 39 9 12 -8 50 16 50 32 0 7 16 24 35 39 19 15 34 32
34 38 -1 6 3 24 9 39 9 20 9 34 2 48 -6 10 -10 25 -9 32 3 27 -2 38 -23 48
-13 5 -34 16 -48 24 -14 8 -31 12 -39 10 -8 -3 -17 -1 -20 4 -4 6 -16 4 -31
-4z"/>
<path d="M7490 7699 c-41 -27 -74 -54 -72 -60 2 -6 -4 -19 -12 -28 -16 -18
-19 -76 -5 -103 6 -10 5 -19 -1 -23 -14 -9 19 -55 35 -49 7 3 19 -3 26 -13 16
-21 52 -27 78 -13 10 5 22 5 27 0 12 -12 136 71 130 87 -3 7 4 19 16 27 12 8
17 19 13 26 -4 7 -2 16 5 20 9 6 9 12 1 29 -7 12 -9 26 -6 32 10 16 -44 92
-61 85 -8 -3 -14 -1 -14 5 0 6 -7 9 -15 6 -8 -4 -17 -2 -20 4 -4 5 -11 7 -16
3 -5 -3 -15 -1 -22 4 -8 7 -34 -5 -87 -39z"/>
<path d="M11652 7657 c-35 -24 -60 -47 -58 -54 3 -7 -4 -19 -15 -26 -12 -9
-17 -20 -13 -31 3 -9 1 -16 -5 -16 -9 0 -9 -5 -1 -21 7 -11 9 -27 6 -35 -4 -9
29 -70 79 -147 50 -78 80 -134 74 -137 -6 -5 -3 -20 11 -43 13 -22 17 -38 11
-42 -7 -4 -5 -15 5 -31 12 -17 13 -24 4 -24 -8 0 -9 -6 -5 -17 4 -10 9 -41 10
-70 2 -39 10 -64 34 -102 20 -30 38 -48 46 -45 7 3 19 -4 27 -15 8 -12 17 -18
21 -15 3 3 11 2 18 -2 23 -14 61 -13 84 2 12 8 29 12 38 8 20 -7 67 24 67 45
0 9 9 22 20 29 20 12 45 58 41 76 -1 4 4 15 11 23 14 18 33 49 47 79 5 11 21
28 35 37 14 10 26 24 26 32 0 8 32 36 70 62 39 27 68 53 65 60 -2 7 5 19 17
27 11 8 17 19 14 25 -4 5 -2 12 3 16 6 3 7 15 2 28 -4 12 -6 27 -4 34 2 7 0
20 -6 31 -6 10 -6 23 -2 28 12 12 -67 134 -86 134 -9 0 -21 8 -28 17 -7 10
-26 18 -41 18 -16 0 -35 4 -41 8 -7 4 -21 3 -32 -3 -11 -5 -22 -6 -25 -2 -6 9
-59 7 -75 -3 -6 -3 -17 -3 -23 2 -7 4 -24 8 -38 8 -14 0 -31 4 -37 8 -7 5 -17
6 -22 2 -5 -3 -12 -1 -16 5 -4 6 -11 8 -16 4 -6 -3 -17 3 -25 15 -9 12 -20 19
-25 15 -6 -3 -18 1 -27 9 -35 29 -94 42 -124 26 -12 -6 -18 -6 -18 1 0 16 -12
12 -78 -33z"/>
<path d="M10317 7589 c-9 -6 -22 -7 -27 -4 -15 9 -99 -43 -111 -68 -5 -12 -16
-33 -25 -47 -8 -14 -12 -33 -10 -42 2 -10 0 -18 -6 -18 -6 0 -7 -8 -4 -17 4
-9 2 -19 -3 -22 -14 -9 40 -91 60 -91 9 0 22 -7 29 -14 8 -11 18 -12 35 -6 16
6 25 5 27 -2 3 -7 38 10 86 42 44 29 79 57 76 62 -3 5 2 18 11 28 9 10 14 23
11 29 -4 5 -2 12 4 16 7 4 7 12 0 25 -5 10 -7 25 -4 33 6 17 -23 67 -39 67 -6
0 -18 6 -26 14 -23 19 -63 27 -84 15z"/>
<path d="M9705 7478 c-48 -31 -72 -53 -69 -62 3 -8 -4 -20 -15 -28 -14 -10
-17 -18 -11 -28 5 -8 7 -24 5 -35 -6 -25 65 -130 88 -130 8 0 19 -3 22 -7 4
-3 21 -1 38 7 18 7 37 10 44 8 17 -6 95 48 89 62 -2 6 5 17 15 23 10 7 19 19
19 26 0 8 7 22 15 30 12 12 13 20 6 35 -6 11 -9 26 -6 33 8 19 -51 108 -72
109 -10 1 -35 2 -56 3 -31 2 -52 -6 -112 -46z"/>
<path d="M8406 7494 c-13 -9 -23 -10 -31 -4 -8 6 -32 -4 -75 -33 -35 -23 -62
-45 -60 -48 3 -4 -3 -16 -12 -26 -10 -11 -19 -34 -21 -51 -2 -18 -7 -35 -10
-38 -15 -16 69 -138 89 -130 7 3 16 1 19 -4 4 -7 13 -6 25 0 10 5 26 7 35 4
19 -8 123 59 132 84 3 9 13 25 20 34 8 9 12 22 8 27 -3 6 -1 11 5 11 7 0 9 7
6 17 -4 9 -2 19 4 23 6 4 -5 29 -26 63 -20 31 -40 54 -45 51 -6 -3 -18 3 -27
14 -15 17 -20 18 -36 6z"/>
<path d="M12787 7498 c-10 -5 -25 -7 -33 -4 -20 8 -144 -73 -137 -89 2 -7 -4
-19 -14 -26 -11 -8 -18 -26 -18 -44 1 -39 63 -135 90 -137 35 -2 40 -3 53 -12
7 -4 19 -3 27 4 8 7 22 9 31 6 22 -9 145 71 138 89 -3 7 3 19 13 26 10 8 19
25 20 39 3 31 -68 136 -91 134 -9 -1 -16 3 -16 8 0 6 -8 7 -17 4 -9 -4 -19 -2
-22 3 -4 6 -13 6 -24 -1z"/>
<path d="M7805 7360 c-18 -12 -33 -16 -40 -10 -6 5 -31 -4 -64 -25 -29 -19
-59 -31 -66 -29 -7 3 -27 -2 -44 -10 -18 -10 -32 -12 -36 -6 -4 6 -15 4 -29
-5 -12 -8 -26 -12 -29 -8 -12 11 -59 13 -79 2 -12 -7 -18 -6 -18 2 0 6 -7 8
-17 5 -9 -4 -19 -2 -23 4 -10 17 -161 -86 -154 -105 4 -8 1 -15 -6 -15 -7 0
-10 -6 -7 -14 3 -8 3 -17 0 -20 -11 -10 -12 -59 -3 -76 5 -10 5 -21 0 -26 -13
-13 57 -117 74 -111 7 3 18 -4 25 -15 7 -11 19 -17 26 -14 9 3 19 -4 26 -15 6
-11 17 -18 24 -15 7 2 21 -6 29 -20 9 -13 22 -23 29 -21 6 1 46 -50 89 -113
57 -84 74 -118 66 -127 -7 -9 -4 -15 14 -22 14 -5 32 -21 41 -35 11 -15 23
-23 32 -20 8 4 17 -1 21 -9 5 -15 17 -16 126 -3 35 4 97 46 91 62 -2 7 5 19
17 27 12 9 19 20 16 26 -4 5 -2 12 4 16 6 4 8 10 5 14 -2 5 0 23 5 41 6 22 6
39 -1 53 -6 11 -7 22 -3 26 5 3 9 21 9 39 -1 19 3 36 7 38 4 3 5 11 1 19 -3 8
0 15 7 15 7 0 10 6 7 14 -3 8 3 22 13 31 11 10 17 22 14 27 -4 5 3 16 15 24
12 9 19 20 15 25 -3 5 0 16 6 24 7 8 9 15 5 15 -5 0 0 9 10 19 23 26 25 106 4
151 -9 19 -14 41 -12 48 3 6 -2 12 -11 12 -9 0 -28 18 -42 40 -15 22 -32 40
-39 40 -7 0 -18 7 -25 15 -7 9 -19 14 -26 11 -7 -3 -16 -1 -20 5 -3 6 -12 8
-19 5 -7 -2 -17 0 -21 4 -6 6 -22 1 -39 -10z"/>
<path d="M10515 7237 c-79 -53 -81 -56 -88 -127 -1 -14 -6 -28 -11 -31 -18
-14 57 -121 79 -113 8 4 15 1 15 -6 0 -7 7 -10 15 -7 8 4 17 2 20 -4 4 -5 15
-3 27 6 14 9 26 11 33 5 17 -14 123 59 108 74 -4 4 3 14 16 22 12 9 20 22 17
30 -3 7 -1 16 5 19 5 4 6 11 3 17 -4 6 -1 14 6 18 16 10 -68 143 -86 136 -7
-3 -15 -2 -18 1 -3 4 -19 8 -34 9 -21 3 -50 -11 -107 -49z"/>
<path d="M10040 7150 c-8 -5 -23 -7 -33 -4 -10 3 -38 -7 -67 -26 -27 -17 -54
-29 -60 -25 -6 4 -26 -3 -45 -14 -19 -11 -37 -16 -40 -11 -3 5 -20 4 -38 -3
-28 -11 -61 -14 -77 -7 -3 1 -31 3 -62 4 -52 2 -62 -1 -125 -43 -47 -32 -67
-52 -65 -64 2 -9 -2 -17 -9 -17 -6 0 -9 -6 -6 -14 3 -8 3 -17 0 -20 -11 -11
-12 -59 -2 -77 6 -11 5 -20 -1 -24 -6 -4 2 -25 21 -51 16 -24 34 -42 38 -39 5
2 16 -4 26 -15 10 -11 22 -17 27 -14 5 4 16 -3 24 -15 9 -12 20 -19 25 -15 5
3 19 -6 30 -20 11 -14 27 -26 35 -26 8 0 49 -53 91 -117 41 -65 90 -139 107
-165 18 -29 39 -49 51 -50 40 -3 44 -3 50 -10 4 -4 13 -4 20 -2 7 3 16 1 19
-5 4 -6 19 -3 40 10 22 13 37 16 41 10 9 -15 55 17 49 34 -3 7 8 21 26 31 16
10 28 24 26 31 -3 7 -1 15 5 18 5 4 7 10 4 14 -2 5 0 23 5 41 6 22 6 39 -1 53
-6 11 -7 22 -3 26 5 3 9 21 9 39 -1 19 3 36 7 38 4 3 5 11 1 19 -3 8 0 15 7
15 7 0 10 7 6 16 -4 11 1 22 14 31 11 8 18 19 14 24 -3 5 0 16 6 24 7 8 9 15
4 15 -4 0 2 10 14 23 12 13 19 27 15 30 -4 4 2 14 13 21 15 11 19 25 18 67 -1
30 -4 62 -8 71 -4 9 -5 22 -2 27 9 13 -43 91 -59 91 -8 0 -22 12 -33 26 -10
15 -31 29 -45 30 -15 2 -37 5 -50 7 -13 2 -27 6 -33 9 -5 4 -16 3 -24 -2z"/>
<path d="M12454 7060 c-6 -6 -24 -12 -42 -14 -36 -4 -85 -33 -78 -45 3 -5 -3
-16 -14 -26 -10 -9 -16 -23 -13 -31 3 -8 1 -14 -4 -14 -22 0 -10 -62 20 -106
18 -26 35 -45 39 -43 3 2 15 -5 27 -15 17 -16 25 -17 45 -8 19 8 26 8 29 -1 2
-8 12 -6 32 7 16 11 40 19 54 20 16 1 30 10 36 23 6 12 21 30 33 40 12 10 23
32 24 48 2 17 7 33 12 36 18 14 -57 121 -79 113 -8 -4 -15 -1 -15 6 0 7 -6 10
-14 7 -8 -3 -17 -3 -20 0 -11 11 -62 13 -72 3z"/>
<path d="M8300 6980 c-8 -5 -22 -7 -31 -5 -8 3 -47 -15 -86 -40 -65 -42 -72
-50 -79 -88 -5 -23 -8 -46 -9 -52 0 -5 -4 -13 -9 -17 -5 -3 6 -31 24 -62 32
-53 43 -60 88 -59 6 1 12 -3 12 -7 0 -4 16 -6 36 -5 41 4 144 68 144 89 0 7 7
19 15 26 9 7 14 19 11 27 -3 7 -1 13 5 13 6 0 8 9 4 20 -4 12 -2 20 5 20 12 0
-29 80 -60 118 -11 13 -25 20 -31 16 -6 -3 -14 -2 -18 4 -4 7 -12 8 -21 2z"/>
<path d="M10403 6717 c-52 -36 -77 -59 -75 -70 2 -9 -1 -17 -5 -17 -5 0 -9
-15 -8 -32 0 -18 -4 -36 -9 -40 -12 -8 61 -121 73 -114 4 3 23 1 41 -4 21 -6
39 -6 51 0 11 7 20 7 24 0 8 -14 95 42 95 61 0 9 12 24 26 34 15 9 23 22 20
30 -3 8 -1 17 5 20 5 4 7 11 3 16 -3 5 -1 16 5 23 13 16 -65 140 -84 132 -7
-2 -16 -2 -19 1 -3 4 -19 8 -36 10 -22 2 -48 -10 -107 -50z"/>
<path d="M8755 6060 c-34 -23 -59 -46 -57 -54 1 -8 -7 -21 -18 -29 -11 -7 -18
-16 -15 -19 3 -2 0 -19 -5 -38 -8 -27 -6 -40 9 -64 10 -17 16 -39 14 -48 -3
-11 1 -18 11 -18 8 0 23 -11 34 -25 13 -16 26 -23 36 -19 9 3 16 1 16 -5 0 -8
11 -6 32 5 18 9 42 18 53 19 11 1 23 3 28 4 4 0 7 8 7 16 0 8 14 24 30 37 17
12 28 28 26 35 -3 7 -1 15 5 19 6 3 8 12 5 20 -3 8 -2 14 3 14 11 0 10 62 -1
77 -5 7 -7 17 -3 22 7 12 -14 56 -23 47 -3 -4 -16 4 -30 16 -13 13 -25 22 -28
21 -2 -2 -5 -3 -6 -2 -44 11 -69 5 -123 -31z"/>
<path d="M9127 5854 c-37 -24 -67 -51 -67 -58 0 -7 -7 -19 -15 -26 -9 -7 -14
-19 -11 -26 3 -7 1 -16 -4 -19 -7 -4 -6 -13 0 -25 5 -10 7 -26 4 -34 -8 -21
55 -119 71 -112 7 2 16 2 19 -1 3 -4 19 -8 34 -9 33 -4 157 73 157 97 0 8 8
20 18 28 10 7 16 19 13 27 -3 7 -1 16 4 19 7 4 6 13 0 25 -5 10 -7 26 -4 34 8
21 -55 119 -71 112 -7 -2 -16 -2 -19 1 -3 4 -19 8 -34 9 -20 3 -47 -10 -95
-42z"/>
<path d="M8347 5858 c-10 -5 -23 -7 -30 -5 -17 6 -47 -11 -47 -28 0 -8 -11
-22 -25 -31 -14 -9 -25 -25 -25 -35 0 -10 -7 -22 -15 -27 -16 -8 -19 -40 -12
-99 5 -43 54 -116 73 -109 8 3 14 1 14 -5 0 -6 8 -9 18 -7 9 1 22 -1 28 -5 14
-8 155 82 152 98 -1 5 5 26 14 46 25 56 19 107 -17 161 -18 27 -34 45 -38 42
-3 -3 -11 -2 -18 2 -20 12 -53 13 -72 2z"/>
<path d="M6673 5825 c-16 -11 -22 -12 -25 -3 -6 18 -97 -38 -107 -66 -5 -12
-16 -28 -24 -35 -9 -7 -13 -19 -10 -27 3 -8 0 -14 -7 -14 -7 0 -9 -8 -5 -20 4
-12 2 -20 -5 -20 -7 0 -8 -6 -1 -18 6 -11 9 -28 9 -39 -3 -27 41 -95 57 -89 8
3 19 -2 25 -10 19 -22 91 -11 143 21 25 16 43 34 41 40 -3 7 2 18 11 25 8 7
15 21 15 31 0 11 4 19 8 19 4 0 8 15 7 33 0 17 4 35 9 39 13 9 -74 140 -89
134 -7 -2 -17 0 -22 5 -5 5 -17 3 -30 -6z"/>
<path d="M6948 5588 c-33 -21 -57 -42 -54 -47 6 -10 -20 -67 -35 -76 -5 -4 -5
-13 1 -25 5 -10 8 -25 5 -32 -8 -21 73 -141 90 -134 8 3 17 1 20 -4 4 -6 14
-6 26 1 11 6 26 8 33 6 20 -8 75 29 85 57 5 13 17 26 26 30 10 3 15 12 11 21
-3 8 3 20 12 27 20 15 22 63 4 95 -8 14 -8 24 -2 28 13 8 -32 76 -47 71 -6 -3
-17 1 -23 9 -21 26 -89 14 -152 -27z"/>
<path d="M8730 5595 c-14 -8 -32 -12 -41 -9 -20 6 -142 -73 -136 -89 6 -16
-165 -128 -179 -116 -6 5 -23 0 -43 -12 -22 -13 -36 -17 -40 -10 -9 14 -119
-60 -114 -76 2 -6 -4 -17 -14 -25 -22 -16 -25 -34 -22 -132 1 -34 59 -125 76
-119 6 2 18 -5 26 -17 8 -11 18 -20 23 -19 5 1 11 1 14 -1 5 -1 44 -8 83 -13
13 -2 28 -7 35 -11 7 -4 16 -5 21 -1 5 3 12 1 16 -5 4 -6 11 -8 16 -4 6 3 17
-3 25 -14 8 -12 21 -19 28 -16 8 3 21 -4 29 -16 9 -12 20 -19 25 -16 6 3 20
-7 32 -23 11 -17 26 -28 33 -26 7 3 27 -18 45 -45 21 -32 39 -50 52 -50 11 0
20 -5 20 -11 0 -5 4 -8 9 -5 4 3 23 1 41 -4 22 -6 39 -6 53 1 14 8 21 8 26 0
9 -14 119 60 114 76 -2 6 5 18 16 25 12 8 18 17 15 21 -3 3 -2 11 2 18 14 23
13 61 -2 84 -8 12 -12 29 -8 38 3 8 -1 26 -10 39 -8 13 -15 32 -16 43 0 25 -7
87 -10 100 -1 6 -2 12 0 15 2 6 8 44 13 80 2 14 7 31 11 38 4 7 4 17 1 23 -10
16 -12 69 -3 75 10 6 -2 30 -59 117 -25 37 -49 64 -54 61 -6 -3 -18 0 -27 8
-34 27 -61 38 -67 27 -5 -6 -11 -7 -18 0 -8 6 -21 5 -37 -4z"/>
<path d="M6110 5556 c-33 -23 -58 -47 -55 -53 2 -7 -5 -19 -16 -26 -12 -9 -17
-20 -13 -31 3 -9 1 -16 -5 -16 -9 0 -9 -5 -1 -21 7 -11 9 -28 5 -36 -6 -18 61
-127 74 -119 4 3 16 -1 27 -8 16 -12 25 -11 64 9 25 12 51 20 59 17 8 -3 11 0
7 6 -3 6 9 23 29 37 19 15 32 31 29 36 -3 5 2 16 10 25 15 15 16 90 1 114 -3
5 -1 10 5 10 15 0 -21 61 -40 68 -8 3 -21 10 -29 16 -32 25 -90 14 -151 -28z"/>
<path d="M9192 5352 c-23 -15 -40 -33 -37 -40 2 -7 -4 -18 -15 -24 -11 -7 -20
-20 -20 -28 0 -9 -5 -21 -12 -28 -14 -14 -18 -73 -5 -89 5 -7 7 -20 3 -28 -7
-18 22 -68 34 -60 5 3 15 -2 23 -10 9 -8 28 -16 44 -18 16 -2 34 -6 39 -10 14
-8 109 57 118 80 8 22 27 56 45 76 9 11 10 21 2 35 -6 12 -7 22 -1 28 6 6 -6
34 -33 74 -43 65 -69 79 -108 59 -9 -4 -20 -4 -25 1 -6 6 -26 -2 -52 -18z"/>
<path d="M6526 5316 c-21 -14 -45 -22 -52 -19 -16 6 -46 -15 -39 -27 10 -17
-250 -184 -273 -175 -7 3 -26 -2 -42 -10 -16 -8 -33 -15 -37 -14 -20 3 -34 -2
-28 -10 3 -6 -13 -24 -35 -42 -22 -18 -38 -39 -36 -46 3 -7 1 -15 -5 -18 -5
-4 -6 -11 -3 -17 4 -6 1 -14 -7 -18 -10 -7 -10 -11 0 -24 7 -9 10 -23 7 -32
-9 -22 72 -147 90 -140 7 3 20 -4 27 -14 8 -11 16 -17 20 -14 3 3 12 2 19 -2
7 -5 24 -9 38 -9 14 0 31 -4 38 -8 6 -5 16 -6 21 -2 5 3 12 1 16 -4 3 -6 12
-8 19 -5 8 3 17 0 21 -5 3 -6 11 -9 16 -5 6 3 17 -3 25 -14 8 -12 21 -19 29
-16 7 3 18 -4 25 -16 7 -13 18 -19 26 -16 9 3 24 -9 40 -34 15 -22 33 -40 40
-40 7 0 22 -14 34 -31 27 -38 60 -52 125 -54 42 -1 60 5 113 38 41 26 62 45
62 58 0 11 7 22 15 25 10 4 13 13 10 25 -4 11 -3 19 2 19 15 0 7 67 -11 95
-10 15 -15 34 -12 42 4 8 -3 30 -15 49 -13 21 -16 34 -9 34 8 0 9 6 5 18 -11
25 -12 65 -2 79 5 7 6 17 3 22 -4 5 -2 12 4 16 6 4 8 10 5 14 -2 5 0 23 5 41
6 21 6 39 0 51 -7 11 -7 20 0 24 6 4 6 15 0 31 -6 14 -7 30 -4 36 9 14 -77
137 -92 131 -6 -2 -18 5 -26 16 -8 12 -18 18 -21 15 -4 -4 -12 -3 -19 3 -7 5
-28 9 -45 9 -18 -1 -33 2 -33 7 0 12 -13 8 -54 -17z"/>
<path d="M7022 5062 c-39 -26 -70 -52 -68 -59 3 -6 -4 -19 -14 -28 -10 -9 -16
-23 -13 -31 3 -8 0 -14 -7 -14 -9 0 -8 -7 3 -24 10 -14 12 -27 7 -32 -15 -15
50 -114 75 -116 35 -2 40 -3 53 -12 16 -10 158 86 154 104 -2 7 6 18 16 26 14
10 18 24 17 71 -1 48 -7 67 -32 104 -18 25 -39 45 -50 45 -10 0 -29 3 -43 7
-20 5 -41 -4 -98 -41z"/>
<path d="M7792 4157 c-34 -23 -60 -47 -58 -53 3 -7 -4 -20 -14 -29 -14 -13
-17 -22 -10 -35 6 -11 6 -30 0 -50 -8 -28 -4 -39 31 -96 23 -35 45 -62 50 -58
5 3 14 2 21 -2 29 -18 61 -11 118 28 33 22 58 44 54 49 -3 5 -2 14 2 21 8 13
13 36 17 78 1 14 6 28 11 31 13 10 -63 129 -88 138 -59 22 -70 20 -134 -22z"/>
<path d="M8200 4069 c-41 -26 -60 -45 -56 -54 3 -8 1 -17 -5 -21 -6 -3 -8 -12
-5 -20 3 -8 1 -14 -5 -14 -6 0 -9 -7 -6 -15 4 -8 2 -17 -4 -20 -5 -4 -7 -10
-4 -15 3 -5 8 -23 10 -40 5 -43 56 -120 80 -122 40 -3 44 -3 51 -10 3 -4 20 0
37 8 48 25 107 71 100 78 -3 3 2 15 12 26 10 11 15 23 12 27 -4 3 -2 12 4 19
7 9 7 19 0 32 -6 12 -7 22 -1 28 14 14 -70 137 -94 140 -11 2 -30 5 -42 8 -14
4 -41 -7 -84 -35z"/>
<path d="M7411 3810 c-37 -24 -61 -46 -58 -54 3 -7 -4 -18 -15 -25 -11 -7 -17
-19 -14 -26 3 -8 1 -17 -4 -20 -7 -4 -7 -13 -1 -24 6 -10 8 -27 5 -38 -6 -23
75 -148 97 -148 8 0 19 -4 25 -7 11 -7 117 50 140 75 21 22 44 128 33 149 -5
10 -7 23 -4 29 10 15 -55 111 -71 105 -7 -3 -16 -1 -20 5 -3 6 -12 8 -19 5 -7
-2 -17 0 -22 5 -6 6 -33 -6 -72 -31z"/>
<path d="M7893 3679 c-20 -12 -34 -16 -38 -10 -4 7 -15 5 -30 -5 -14 -9 -23
-20 -20 -24 3 -5 -13 -23 -35 -41 -21 -17 -37 -36 -34 -41 4 -5 -3 -16 -14
-24 -12 -8 -19 -21 -16 -29 3 -7 -4 -18 -16 -25 -12 -6 -19 -18 -16 -25 3 -9
-12 -24 -39 -42 -24 -15 -48 -37 -54 -50 -6 -13 -18 -21 -29 -20 -24 1 -93
-44 -85 -56 3 -5 -5 -15 -17 -24 -12 -8 -19 -21 -16 -29 3 -8 -3 -19 -13 -26
-15 -9 -17 -17 -10 -36 5 -13 7 -28 4 -33 -3 -4 1 -22 10 -39 9 -17 13 -35 10
-40 -8 -13 16 -49 30 -44 6 3 21 -9 33 -25 14 -19 28 -28 37 -25 8 4 15 1 15
-6 0 -7 7 -10 15 -7 8 4 17 2 20 -4 4 -5 10 -7 15 -4 5 3 26 8 47 10 21 3 51
6 66 8 16 2 30 0 33 -5 3 -4 15 -3 28 2 13 5 27 6 30 3 3 -4 17 -8 31 -10 14
-1 36 -5 50 -6 14 -2 31 -12 39 -22 7 -10 18 -15 24 -11 6 3 14 1 17 -5 4 -5
13 -8 19 -6 7 3 18 -4 25 -15 7 -11 18 -17 25 -15 7 3 18 -4 25 -15 7 -11 18
-17 26 -15 7 3 16 3 19 0 12 -12 60 -12 85 1 14 7 31 11 38 9 15 -6 63 26 63
42 0 6 9 20 20 30 11 10 17 21 15 25 -2 4 4 15 15 25 11 10 17 22 13 28 -4 6
-8 23 -10 39 -2 15 -5 41 -6 57 -2 17 -20 54 -39 83 -80 121 -97 152 -86 159
8 5 7 15 -5 33 -10 15 -13 27 -7 31 7 4 7 13 0 25 -5 10 -7 26 -4 34 3 9 -4
31 -16 51 -12 19 -19 39 -15 45 9 14 -13 50 -30 50 -8 0 -24 13 -36 30 -12 16
-26 27 -31 24 -4 -3 -14 -2 -20 3 -7 4 -19 8 -27 10 -7 1 -18 6 -24 12 -6 6
-18 6 -33 1 -15 -6 -24 -6 -24 0 0 15 -11 12 -47 -11z"/>
<path d="M8422 3604 c-29 -19 -52 -41 -52 -48 0 -7 -7 -19 -15 -26 -9 -7 -14
-19 -11 -27 3 -7 1 -13 -5 -13 -6 0 -8 -9 -4 -20 3 -11 3 -20 -2 -20 -5 0 -8
-15 -8 -34 2 -43 73 -150 103 -154 12 -2 22 -7 22 -12 0 -5 15 0 34 11 19 11
38 18 42 17 5 -2 10 1 11 5 1 5 17 20 36 35 18 15 32 33 30 39 -3 7 4 17 15
24 12 7 17 19 14 31 -2 10 1 18 7 18 8 0 7 7 -3 22 -10 14 -12 26 -6 33 11 13
-63 130 -82 130 -7 0 -19 4 -26 9 -7 4 -16 5 -19 2 -3 -3 -11 -2 -18 4 -8 6
-28 -2 -63 -26z"/>
<path d="M5937 3269 c-9 -6 -22 -7 -27 -4 -14 9 -50 -13 -45 -28 3 -6 -8 -21
-25 -32 -17 -11 -28 -25 -25 -32 2 -7 0 -15 -6 -19 -6 -3 -8 -12 -5 -20 3 -8
2 -14 -3 -14 -4 0 -7 -26 -7 -58 2 -63 35 -132 63 -132 9 0 21 -8 28 -17 11
-14 17 -15 38 -6 19 9 27 9 29 1 5 -14 94 44 91 59 -1 6 6 18 17 28 10 9 16
23 13 31 -3 8 0 14 6 14 6 0 9 15 7 35 -1 19 2 36 8 38 5 2 0 19 -12 39 -15
25 -19 39 -12 43 8 5 6 13 -6 26 -9 10 -20 16 -25 14 -4 -3 -14 3 -21 13 -16
23 -57 34 -81 21z"/>
<path d="M6288 3147 c-35 -24 -63 -50 -63 -58 0 -8 -4 -20 -8 -26 -5 -7 -5
-17 -2 -23 3 -5 1 -10 -5 -10 -7 0 -9 -8 -5 -20 4 -12 2 -20 -5 -20 -8 0 -8
-6 0 -21 7 -11 9 -27 6 -35 -7 -19 43 -95 60 -92 7 2 19 -5 27 -16 12 -16 17
-17 37 -6 17 9 25 10 28 2 4 -14 102 45 109 67 3 9 13 24 21 34 8 9 12 20 9
24 -4 3 -2 12 4 19 7 9 7 19 0 33 -8 14 -8 22 0 26 7 5 5 14 -5 30 -9 13 -11
26 -6 31 12 12 -28 76 -42 68 -5 -3 -15 2 -22 11 -25 34 -70 28 -138 -18z"/>
<path d="M5491 2884 c-29 -19 -55 -43 -58 -52 -3 -9 -12 -25 -20 -34 -11 -12
-12 -21 -4 -37 6 -11 7 -22 3 -25 -5 -3 -8 -20 -7 -38 1 -39 64 -141 82 -134
7 3 15 1 19 -5 3 -6 12 -8 19 -5 7 2 17 0 22 -5 10 -10 128 65 129 83 0 7 6
26 13 42 6 16 10 35 7 43 -3 7 -1 13 5 13 6 0 8 7 5 17 -4 9 -2 19 3 23 16 9
-72 136 -92 132 -9 -2 -17 1 -17 5 0 22 -61 9 -109 -23z"/>
<path d="M6000 2765 c-14 -8 -32 -12 -40 -10 -21 7 -99 -45 -93 -60 2 -7 -10
-23 -26 -35 -17 -12 -28 -26 -25 -32 3 -5 -3 -16 -15 -24 -12 -9 -19 -20 -15
-25 3 -6 -4 -17 -16 -26 -12 -8 -19 -21 -16 -28 3 -8 -39 -41 -106 -85 -64
-42 -107 -77 -105 -84 3 -7 -4 -18 -15 -25 -11 -7 -17 -19 -14 -27 3 -8 0 -14
-5 -14 -6 0 -9 -9 -6 -20 3 -11 1 -20 -3 -20 -5 0 -7 -16 -6 -35 4 -43 83
-168 102 -161 7 3 19 -3 26 -13 13 -18 62 -22 85 -8 7 4 14 3 18 -3 4 -7 13
-7 26 1 11 6 27 8 36 5 8 -3 23 -2 32 4 10 5 21 6 25 3 3 -3 16 -8 28 -9 13
-2 35 -5 51 -7 15 -2 30 -6 33 -10 3 -3 12 -3 19 -1 7 3 16 0 20 -5 3 -6 11
-9 16 -5 6 3 17 -3 25 -14 8 -12 21 -19 28 -16 8 3 17 1 21 -5 3 -6 26 -20 50
-31 24 -11 47 -25 50 -31 5 -7 15 -5 30 5 17 11 25 12 27 4 3 -8 21 -2 54 17
73 42 115 76 108 87 -3 5 3 16 13 23 15 10 19 23 16 47 -2 18 -4 44 -4 57 -1
13 -30 71 -67 128 -36 57 -67 118 -69 134 -1 16 -5 44 -8 62 -3 17 -7 46 -8
62 -2 17 -8 39 -14 50 -6 11 -8 25 -6 32 6 17 -54 103 -72 103 -8 0 -20 9 -28
20 -8 12 -18 20 -23 19 -5 -1 -11 -1 -14 1 -3 1 -17 3 -32 5 -16 2 -36 6 -45
9 -10 3 -29 -1 -43 -9z"/>
<path d="M6506 2680 c-26 -17 -49 -38 -53 -47 -3 -10 -13 -26 -20 -35 -8 -9
-12 -22 -8 -27 3 -6 1 -11 -5 -11 -7 0 -9 -8 -5 -20 4 -12 2 -20 -5 -20 -8 0
-8 -6 0 -21 7 -11 9 -27 6 -35 -8 -21 55 -113 79 -115 11 -1 25 -3 32 -3 6 -1
15 -4 19 -8 15 -15 144 68 137 89 -2 6 4 17 14 25 18 13 25 70 10 84 -4 4 -3
12 3 19 15 18 -64 135 -92 137 -37 2 -42 3 -54 10 -6 4 -32 -6 -58 -22z"/>
<path d="M7405 1410 c-34 -23 -59 -46 -57 -54 1 -8 -2 -17 -7 -21 -6 -3 -8
-12 -4 -20 3 -8 1 -15 -5 -15 -5 0 -9 -15 -8 -32 2 -18 -1 -38 -5 -43 -12 -16
68 -138 86 -131 8 3 17 1 21 -5 3 -6 12 -8 19 -5 8 3 15 0 18 -7 2 -7 29 5 71
32 41 27 65 49 62 57 -3 7 -1 16 5 20 6 3 8 12 5 20 -3 8 -1 14 5 14 6 0 9 6
6 14 -3 8 -2 30 3 47 9 29 5 40 -30 94 -24 36 -47 61 -57 61 -10 0 -29 3 -43
7 -20 5 -39 -3 -85 -33z"/>
<path d="M7807 1320 c-38 -27 -54 -45 -51 -55 4 -8 1 -15 -6 -15 -7 0 -10 -6
-7 -14 3 -8 3 -17 -1 -21 -4 -3 -7 -21 -7 -38 -1 -18 -4 -37 -7 -43 -9 -14 70
-137 82 -129 6 3 15 3 22 -1 30 -19 65 -12 118 25 30 20 54 43 52 50 -1 7 5
19 15 26 13 10 18 28 19 67 1 46 -5 62 -39 116 -23 37 -45 61 -53 58 -6 -2
-15 -2 -18 1 -3 4 -19 8 -35 9 -20 3 -44 -8 -84 -36z"/>
<path d="M7067 1090 c-37 -14 -107 -67 -103 -77 3 -7 1 -15 -5 -19 -6 -3 -8
-11 -6 -17 2 -7 -2 -18 -10 -25 -26 -26 -9 -98 38 -168 24 -35 49 -62 55 -60
6 2 16 0 21 -5 11 -11 166 88 158 101 -4 6 -3 16 2 23 5 7 9 24 8 40 0 15 3
27 8 27 5 0 6 10 3 23 -4 12 -8 34 -9 48 -3 30 -43 89 -61 89 -6 0 -17 5 -24
12 -12 12 -52 17 -75 8z"/>
<path d="M7505 932 c-17 -10 -38 -16 -49 -14 -10 2 -16 0 -12 -6 3 -6 -17 -27
-45 -47 -31 -24 -48 -43 -45 -52 3 -7 -1 -16 -10 -20 -8 -3 -13 -12 -10 -19 3
-8 -6 -21 -19 -30 -14 -9 -25 -24 -25 -33 0 -9 -18 -29 -40 -44 -22 -16 -38
-32 -35 -37 7 -12 -39 -42 -70 -45 -31 -4 -45 -13 -45 -30 0 -7 -13 -23 -30
-35 -18 -13 -27 -26 -23 -35 3 -8 0 -15 -7 -15 -7 0 -10 -7 -7 -15 4 -8 3 -17
-2 -19 -4 -3 -6 -18 -4 -33 1 -15 5 -42 7 -59 5 -41 23 -74 41 -74 7 0 22 -12
33 -26 10 -15 31 -29 45 -30 15 -2 37 -5 50 -7 13 -2 28 -7 35 -11 7 -4 19 -2
27 4 8 7 20 10 27 7 7 -2 23 0 35 4 12 5 24 5 27 0 5 -8 71 -5 86 4 6 3 10 1
10 -5 0 -7 8 -9 20 -5 12 4 20 2 20 -5 0 -7 6 -10 14 -7 8 3 22 -3 31 -13 9
-10 23 -16 31 -13 8 3 14 0 14 -7 0 -6 5 -8 11 -4 6 3 23 -5 37 -19 27 -25 98
-51 113 -41 4 2 10 0 14 -6 4 -7 13 -7 26 1 11 6 26 8 33 6 18 -7 92 37 88 53
-2 7 7 19 18 27 21 15 45 60 41 77 -2 8 -5 29 -14 107 -5 34 -44 89 -64 89
-10 0 -13 6 -9 16 4 10 -6 36 -25 65 -18 29 -29 56 -25 65 4 9 1 23 -5 30 -6
8 -9 21 -5 30 3 8 1 24 -4 34 -7 13 -7 21 0 25 7 4 2 20 -12 43 -12 20 -22 47
-23 60 0 14 -9 30 -19 36 -11 6 -30 23 -43 38 -14 16 -30 25 -38 21 -8 -3 -15
0 -15 7 0 7 -6 10 -14 7 -8 -3 -17 -3 -20 0 -3 4 -17 7 -31 9 -14 1 -33 5 -42
8 -10 3 -32 -2 -48 -12z"/>
<path d="M8103 875 c-16 -11 -22 -12 -25 -3 -3 8 -20 2 -51 -17 -26 -17 -45
-36 -42 -42 2 -7 -5 -19 -16 -26 -12 -9 -17 -20 -13 -31 3 -9 2 -16 -3 -16 -5
0 -9 -8 -9 -17 0 -10 -3 -30 -7 -45 -6 -21 2 -40 40 -97 26 -39 53 -69 59 -67
6 2 16 0 22 -6 6 -6 19 -5 39 5 16 9 38 15 48 14 11 -1 24 8 30 20 7 13 20 32
30 43 10 11 14 20 10 20 -4 0 0 9 11 21 13 14 19 37 20 72 0 44 -5 61 -40 114
-22 34 -43 60 -48 57 -5 -3 -15 -1 -22 5 -9 7 -18 6 -33 -4z"/>
<path d="M5545 711 c-43 -29 -69 -54 -69 -64 1 -10 -3 -17 -8 -17 -6 0 -8 -7
-5 -15 4 -8 2 -17 -3 -20 -5 -3 -7 -12 -4 -19 3 -8 1 -17 -5 -21 -8 -4 -7 -13
4 -27 9 -14 11 -26 5 -33 -11 -14 40 -97 57 -91 6 3 19 -4 28 -14 14 -15 22
-17 36 -9 11 5 24 7 30 3 14 -8 121 64 113 77 -3 6 2 16 13 24 14 10 18 25 18
66 -1 30 -4 60 -9 67 -4 7 -5 20 -2 28 7 17 -31 77 -43 69 -5 -2 -16 4 -26 15
-10 11 -22 17 -27 14 -5 -3 -14 -1 -21 5 -9 7 -32 -4 -82 -38z"/>
<path d="M5962 630 c-34 -22 -62 -46 -62 -54 0 -7 -7 -19 -15 -26 -9 -7 -14
-19 -11 -26 3 -7 1 -16 -5 -19 -5 -4 -6 -11 -3 -17 4 -6 1 -14 -6 -18 -9 -6
-9 -13 1 -31 7 -13 12 -32 10 -41 -3 -20 43 -91 52 -81 4 3 15 -1 24 -9 37
-31 63 -29 129 13 39 25 61 45 58 54 -3 7 3 19 13 26 10 8 18 27 18 44 0 17 4
33 9 37 5 3 2 18 -8 33 -10 15 -15 33 -12 41 7 19 -26 74 -45 74 -9 0 -22 7
-29 15 -7 9 -19 14 -27 11 -7 -3 -13 -1 -13 4 0 17 -15 11 -78 -30z"/>
<path d="M5151 359 c-42 -27 -61 -44 -57 -54 3 -8 1 -17 -5 -21 -6 -3 -8 -12
-5 -19 3 -8 1 -15 -4 -17 -6 -2 -12 -24 -14 -49 -4 -40 0 -55 29 -101 29 -46
40 -55 80 -66 45 -12 47 -11 101 23 30 19 57 43 61 53 3 9 13 25 21 35 8 9 12
20 9 24 -4 3 -2 12 4 20 9 9 8 17 0 27 -6 7 -9 20 -5 29 5 14 -25 74 -60 119
-7 10 -26 19 -43 21 -16 2 -33 6 -39 10 -6 3 -38 -12 -73 -34z"/>
<path d="M5718 244 c-5 -5 -68 -14 -102 -15 -28 0 -75 -30 -70 -44 3 -6 -9
-21 -26 -33 -17 -13 -28 -27 -26 -31 3 -5 -3 -16 -14 -26 -11 -10 -17 -22 -14
-27 4 -5 -3 -16 -15 -24 -12 -8 -21 -22 -21 -30 0 -12 39 -14 253 -14 140 0
256 3 260 6 3 4 -1 17 -10 31 -12 18 -13 27 -5 32 15 9 -61 126 -82 126 -8 0
-21 8 -28 18 -7 9 -27 18 -43 20 -17 2 -36 6 -42 10 -5 3 -12 4 -15 1z"/>
<path d="M6162 154 c-31 -20 -52 -40 -49 -48 3 -7 -4 -18 -15 -25 -11 -7 -17
-19 -14 -26 3 -8 1 -17 -4 -20 -5 -3 -7 -12 -3 -21 4 -12 29 -14 152 -12 129
3 146 5 149 20 5 24 -79 150 -95 144 -7 -3 -15 -1 -19 5 -3 6 -12 8 -19 5 -7
-2 -16 -1 -21 4 -5 4 -33 -7 -62 -26z"/>
</g>
</svg>
