<svg width="87" height="75" viewBox="0 0 87 75" fill="none" xmlns="http://www.w3.org/2000/svg">
<path opacity="0.4" d="M69.1661 49.1251C67.0273 38.0938 54.7386 29.125 41.7611 29.125C27.6597 29.125 15.2623 38.9688 14.066 51.0938C13.5948 55.7813 15.3348 60.2188 18.9235 63.5626C22.476 66.9063 27.4785 68.7501 32.916 68.7501H49.8811C56.0073 68.7501 61.3723 66.6876 65.0336 62.9688C68.6948 59.2501 70.1448 54.3126 69.1661 49.1251Z" fill="#FF8E3C"/>
<path d="M37.2638 24.5625C43.1298 24.5625 47.885 20.4631 47.885 15.4062C47.885 10.3494 43.1298 6.25 37.2638 6.25C31.3979 6.25 26.6426 10.3494 26.6426 15.4062C26.6426 20.4631 31.3979 24.5625 37.2638 24.5625Z" fill="#292D32"/>
<path d="M61.4075 28.2183C66.2926 28.2183 70.2525 24.8044 70.2525 20.5933C70.2525 16.3821 66.2926 12.9683 61.4075 12.9683C56.5225 12.9683 52.5625 16.3821 52.5625 20.5933C52.5625 24.8044 56.5225 28.2183 61.4075 28.2183Z" fill="#292D32"/>
<path d="M74.4921 40.4062C78.3962 40.4062 81.5608 37.678 81.5608 34.3124C81.5608 30.947 78.3962 28.2188 74.4921 28.2188C70.5883 28.2188 67.4233 30.947 67.4233 34.3124C67.4233 37.678 70.5883 40.4062 74.4921 40.4062Z" fill="#292D32"/>
<path d="M14.2825 34.313C19.1674 34.313 23.1275 30.8991 23.1275 26.688C23.1275 22.4768 19.1674 19.063 14.2825 19.063C9.39756 19.063 5.4375 22.4768 5.4375 26.688C5.4375 30.8991 9.39756 34.313 14.2825 34.313Z" fill="#292D32"/>
</svg>
