<?xml version="1.0" standalone="no"?>
<!DOCTYPE svg PUBLIC "-//W3C//DTD SVG 20010904//EN"
 "http://www.w3.org/TR/2001/REC-SVG-20010904/DTD/svg10.dtd">
<svg version="1.0" xmlns="http://www.w3.org/2000/svg"
 width="789.000000pt" height="316.000000pt" viewBox="0 0 789.000000 316.000000"
 preserveAspectRatio="xMidYMid meet">

<g transform="translate(0.000000,316.000000) scale(0.100000,-0.100000)"
fill="#000000" stroke="none">
<path d="M198 2709 c-49 -50 -88 -94 -88 -99 0 -13 14 -20 76 -36 106 -27 150
10 145 123 -2 64 -15 103 -33 102 -7 0 -52 -41 -100 -90z"/>
<path d="M380 2685 c0 -25 42 -55 77 -55 39 0 44 19 13 50 -24 24 -90 28 -90
5z"/>
<path d="M407 2573 c-22 -22 19 -93 54 -93 27 0 33 23 15 58 -18 35 -52 53
-69 35z"/>
<path d="M177 2503 c-15 -15 -5 -43 24 -67 41 -35 63 -35 55 0 -14 56 -55 91
-79 67z"/>
<path d="M317 2493 c-15 -14 -5 -46 22 -74 38 -38 66 -30 57 15 -9 44 -58 81
-79 59z"/>
<path d="M7652 2214 c-29 -20 -28 -50 2 -69 46 -30 110 10 87 54 -18 33 -54
40 -89 15z"/>
<path d="M7484 2145 c-12 -18 -15 -37 -10 -63 3 -20 1 -65 -5 -100 -10 -53 -9
-66 5 -87 21 -32 62 -33 105 -1 18 13 47 30 64 37 82 32 103 96 46 143 -17 14
-34 26 -38 26 -5 0 -28 16 -52 35 -53 42 -92 46 -115 10z"/>
<path d="M7775 2100 c-16 -18 -16 -21 -2 -43 19 -30 48 -38 79 -23 29 15 35
42 12 67 -22 25 -66 24 -89 -1z"/>
<path d="M110 2075 c-19 -15 -52 -35 -73 -46 -36 -19 -38 -22 -35 -62 3 -39 5
-42 48 -58 52 -19 95 -11 123 22 14 18 17 37 15 93 -3 62 -5 71 -23 74 -11 1
-36 -9 -55 -23z"/>
<path d="M6630 2060 c-24 -24 -25 -43 -4 -64 21 -22 60 -20 84 4 26 26 25 45
-2 64 -30 21 -54 20 -78 -4z"/>
<path d="M6791 2006 c-19 -20 -21 -28 -12 -45 23 -41 111 -17 111 30 0 43 -64
52 -99 15z"/>
<path d="M257 2003 c-14 -14 -6 -45 18 -68 47 -48 73 -19 40 45 -14 28 -43 39
-58 23z"/>
<path d="M769 1938 c-12 -24 -41 -70 -66 -102 -24 -33 -42 -66 -41 -75 2 -12
21 -18 73 -24 60 -6 73 -5 95 11 41 31 47 63 25 150 -17 64 -24 78 -42 80 -17
3 -27 -6 -44 -40z"/>
<path d="M7772 1968 c-17 -17 -15 -42 6 -61 25 -23 58 -21 83 4 18 18 19 23 6
42 -17 25 -75 35 -95 15z"/>
<path d="M6510 1950 c-27 -27 -25 -55 10 -124 17 -32 30 -72 30 -87 0 -34 31
-69 61 -69 21 0 31 9 114 109 76 92 57 144 -56 160 -37 5 -76 14 -87 20 -30
16 -49 14 -72 -9z"/>
<path d="M922 1898 c-31 -31 5 -61 65 -56 48 4 52 23 11 48 -38 23 -59 25 -76
8z"/>
<path d="M6846 1881 c-10 -11 -16 -30 -14 -43 6 -45 108 -29 108 18 0 20 -29
44 -54 44 -13 0 -31 -9 -40 -19z"/>
<path d="M7627 1872 c-22 -24 -21 -35 1 -55 24 -22 65 -21 85 1 22 24 21 35
-1 55 -24 22 -65 21 -85 -1z"/>
<path d="M232 1868 c-19 -19 -14 -47 14 -73 58 -54 90 -7 38 54 -29 34 -35 36
-52 19z"/>
<path d="M7 1854 c-18 -19 2 -98 28 -108 20 -7 39 48 28 81 -9 27 -41 42 -56
27z"/>
<path d="M120 1781 c0 -33 42 -74 69 -68 38 7 -3 97 -44 97 -21 0 -25 -5 -25
-29z"/>
<path d="M954 1766 c-9 -23 22 -65 52 -72 37 -10 46 6 26 46 -19 39 -67 55
-78 26z"/>
<path d="M6747 1742 c-44 -48 10 -103 62 -64 33 24 39 52 15 69 -25 18 -58 16
-77 -5z"/>
<path d="M7271 1716 c-7 -8 -11 -27 -9 -43 2 -22 9 -29 31 -31 54 -6 97 44 65
76 -17 17 -73 15 -87 -2z"/>
<path d="M883 1674 c-15 -41 50 -101 81 -74 14 11 14 16 -1 44 -9 17 -21 34
-27 38 -19 13 -46 9 -53 -8z"/>
<path d="M7439 1669 c-23 -23 -22 -57 3 -73 22 -14 66 2 85 31 13 19 12 24 -6
42 -27 27 -55 27 -82 0z"/>
<path d="M743 1664 c-12 -33 47 -84 81 -71 15 6 15 9 1 37 -24 46 -70 65 -82
34z"/>
<path d="M6135 1608 c-26 -15 -35 -28 -35 -54 0 -50 65 -56 96 -9 15 23 15 27
0 50 -18 27 -31 30 -61 13z"/>
<path d="M7151 1601 c-27 -27 -26 -45 4 -97 14 -24 28 -64 32 -90 7 -56 32
-84 73 -84 25 0 35 9 65 55 19 31 41 58 49 61 7 3 21 20 31 38 16 30 16 34 1
64 -9 18 -26 34 -39 36 -12 2 -47 9 -77 16 -112 23 -117 23 -139 1z"/>
<path d="M5970 1603 c-39 -14 -54 -74 -23 -91 32 -19 93 18 93 57 0 14 -29 41
-43 40 -7 0 -19 -3 -27 -6z"/>
<path d="M7493 1545 c-25 -17 -30 -54 -11 -73 18 -18 53 -15 79 7 20 16 22 23
14 47 -12 35 -49 43 -82 19z"/>
<path d="M7869 1503 c0 -10 -2 -52 -3 -93 -2 -41 -6 -86 -10 -100 -6 -19 -2
-32 13 -50 l20 -25 1 143 c0 88 -4 142 -10 142 -5 0 -10 -8 -11 -17z"/>
<path d="M6212 1494 c-17 -12 -22 -24 -20 -47 2 -27 8 -33 31 -35 51 -6 88 53
55 86 -16 16 -39 15 -66 -4z"/>
<path d="M6025 1470 c-16 -4 -53 -8 -80 -9 -102 -2 -125 -58 -54 -126 22 -22
49 -57 60 -77 11 -21 30 -45 44 -54 35 -23 76 -1 88 46 5 19 20 61 34 93 22
51 23 62 12 89 -7 16 -23 34 -36 39 -27 10 -25 10 -68 -1z"/>
<path d="M6816 1409 c-42 -33 -30 -89 19 -89 48 0 76 78 36 100 -25 13 -24 13
-55 -11z"/>
<path d="M7392 1404 c-42 -29 -19 -84 36 -84 44 0 70 70 33 90 -27 14 -43 13
-69 -6z"/>
<path d="M6639 1398 c-26 -20 -32 -54 -14 -72 36 -36 98 -4 93 47 -3 27 -7 32
-33 35 -16 2 -37 -3 -46 -10z"/>
<path d="M6162 1324 c-25 -17 -29 -56 -7 -74 37 -30 108 27 85 69 -13 25 -47
27 -78 5z"/>
<path d="M6912 1310 c-12 -5 -27 -21 -34 -35 -9 -21 -8 -28 7 -45 20 -22 47
-19 78 8 23 20 22 59 -2 72 -22 11 -19 11 -49 0z"/>
<path d="M6710 1280 c-8 -5 -42 -10 -76 -10 -107 0 -126 -57 -46 -138 26 -27
54 -62 61 -79 29 -72 113 -62 127 14 4 21 15 55 25 75 19 38 25 94 11 114 -19
29 -74 42 -102 24z"/>
<path d="M690 1165 c-25 -19 -67 -42 -93 -52 -86 -31 -86 -51 2 -90 120 -54
177 -27 182 87 5 101 -15 113 -91 55z"/>
<path d="M6846 1131 c-10 -11 -16 -31 -14 -48 2 -23 8 -29 34 -31 39 -4 67 25
62 65 -2 23 -8 29 -34 31 -20 2 -36 -4 -48 -17z"/>
<path d="M1387 1108 c-57 -93 -80 -127 -97 -143 -11 -10 -20 -30 -20 -45 0
-25 4 -28 46 -34 81 -11 103 -7 131 20 23 23 25 31 20 82 -11 117 -48 173 -80
120z"/>
<path d="M843 1094 c-13 -34 50 -106 77 -89 26 16 -23 105 -57 105 -8 0 -16
-7 -20 -16z"/>
<path d="M1536 1047 c-41 -30 13 -76 72 -62 32 8 27 32 -10 55 -39 24 -39 24
-62 7z"/>
<path d="M817 963 c-24 -24 23 -93 63 -93 16 0 20 6 20 30 0 46 -57 90 -83 63z"/>
<path d="M6276 948 c-21 -30 -20 -65 2 -76 48 -25 108 48 70 86 -19 19 -55 14
-72 -10z"/>
<path d="M594 945 c-10 -26 6 -84 27 -95 16 -9 21 -7 29 15 21 54 7 95 -32 95
-10 0 -21 -7 -24 -15z"/>
<path d="M5593 925 c-26 -18 -38 -62 -22 -81 18 -22 56 -16 78 12 26 33 26 39
1 64 -24 24 -29 24 -57 5z"/>
<path d="M1557 918 c-13 -36 41 -89 77 -75 22 9 20 29 -5 61 -21 27 -63 35
-72 14z"/>
<path d="M715 899 c-12 -18 4 -58 30 -75 52 -34 76 16 30 61 -26 26 -50 32
-60 14z"/>
<path d="M6116 891 c-10 -11 -16 -31 -14 -48 3 -25 7 -28 38 -28 65 0 83 85
18 93 -14 2 -31 -5 -42 -17z"/>
<path d="M6385 866 c-25 -38 -13 -76 24 -76 40 0 63 25 59 64 -3 27 -7 31 -35
34 -25 3 -35 -2 -48 -22z"/>
<path d="M5426 865 c-36 -37 -26 -95 18 -95 49 0 78 78 37 100 -26 14 -37 13
-55 -5z"/>
<path d="M5699 839 c-14 -14 -19 -30 -17 -52 2 -26 8 -33 30 -35 51 -6 87 57
52 92 -21 21 -40 20 -65 -5z"/>
<path d="M1483 824 c-14 -37 44 -95 81 -81 23 9 20 31 -10 66 -28 33 -61 41
-71 15z"/>
<path d="M1363 823 c-22 -8 -14 -51 13 -72 48 -38 75 -22 49 28 -16 33 -43 51
-62 44z"/>
<path d="M6210 791 c-14 -11 -44 -24 -68 -30 -102 -28 -110 -101 -14 -142 25
-11 65 -38 89 -59 48 -45 61 -48 94 -21 21 16 23 27 25 125 2 95 0 110 -17
127 -24 24 -76 24 -109 0z"/>
<path d="M5515 755 c-21 -13 -53 -27 -70 -31 -38 -8 -75 -41 -75 -69 0 -32 27
-63 60 -70 17 -4 52 -27 78 -51 30 -29 55 -44 73 -44 44 0 56 25 62 137 5 87
4 105 -11 122 -27 33 -71 35 -117 6z"/>
<path d="M6396 699 c-24 -28 -28 -58 -10 -78 11 -12 60 0 76 19 23 29 23 45
-2 70 -27 27 -34 25 -64 -11z"/>
<path d="M5706 669 c-42 -33 -30 -89 19 -89 46 0 72 62 39 94 -20 21 -26 20
-58 -5z"/>
<path d="M2079 588 c-9 -7 -23 -33 -32 -58 -9 -25 -30 -65 -47 -90 -16 -25
-30 -55 -30 -67 0 -21 4 -23 60 -23 142 0 170 50 106 193 -26 60 -33 65 -57
45z"/>
<path d="M2210 524 c-19 -22 10 -48 55 -48 50 0 67 20 36 45 -28 23 -74 25
-91 3z"/>
<path d="M2261 412 c-13 -25 9 -56 48 -70 34 -12 41 -8 41 25 0 16 -11 30 -32
43 -41 25 -45 25 -57 2z"/>
<path d="M1347 358 c-35 -35 -75 -73 -90 -85 -31 -24 -35 -48 -11 -57 10 -4
49 -9 88 -13 67 -5 73 -4 104 22 36 30 40 58 19 140 -9 32 -19 51 -30 53 -10
2 -42 -22 -80 -60z"/>
<path d="M1531 346 c-6 -7 -8 -21 -5 -30 7 -18 54 -46 79 -46 26 0 17 37 -16
64 -35 30 -42 31 -58 12z"/>
<path d="M2213 323 c-20 -7 -15 -51 7 -73 21 -21 65 -27 75 -10 17 27 -50 94
-82 83z"/>
<path d="M2060 273 c0 -34 38 -63 79 -63 29 0 26 26 -5 55 -32 30 -74 34 -74
8z"/>
<path d="M2796 258 c-9 -12 -16 -31 -16 -41 0 -10 -13 -49 -30 -87 -16 -38
-30 -80 -30 -95 0 -26 1 -26 48 -20 88 12 102 16 122 42 11 14 20 35 20 47 0
29 -53 137 -78 159 -19 18 -20 18 -36 -5z"/>
<path d="M2946 224 c-12 -12 -13 -20 -6 -35 14 -25 60 -25 90 -1 l23 19 -24
16 c-30 21 -63 22 -83 1z"/>
<path d="M1543 213 c-38 -15 15 -83 63 -83 32 0 32 33 -1 65 -24 25 -37 28
-62 18z"/>
<path d="M5165 195 c-28 -27 -31 -43 -12 -69 20 -27 69 -18 85 17 12 24 11 31
-2 53 -21 31 -40 30 -71 -1z"/>
<path d="M5823 182 c-6 -4 -16 -19 -22 -34 -8 -22 -6 -31 8 -50 16 -20 22 -21
45 -10 33 15 50 55 36 83 -11 19 -45 25 -67 11z"/>
<path d="M5005 135 c-14 -13 -25 -33 -25 -43 0 -49 66 -53 96 -7 15 23 15 27
0 50 -21 32 -40 32 -71 0z"/>
<path d="M1324 136 c-7 -19 12 -70 33 -87 11 -10 17 -9 30 4 14 14 15 20 2 54
-16 41 -54 58 -65 29z"/>
<path d="M3550 124 c-6 -14 -10 -48 -10 -75 l0 -49 75 0 c58 0 75 3 75 14 0
25 -99 136 -121 136 -5 0 -14 -12 -19 -26z"/>
<path d="M3735 142 c-23 -5 -45 -21 -45 -33 0 -4 7 -14 15 -22 26 -27 112 5
102 37 -4 13 -47 23 -72 18z"/>
<path d="M5280 120 c-35 -35 -21 -90 22 -90 47 0 78 79 39 100 -28 14 -38 13
-61 -10z"/>
<path d="M5680 132 c-24 -7 -40 -33 -40 -64 0 -32 18 -43 54 -34 25 6 53 57
41 75 -10 17 -38 29 -55 23z"/>
<path d="M1452 103 c2 -20 13 -34 40 -48 48 -26 67 -12 44 33 -16 31 -34 42
-67 42 -16 0 -20 -6 -17 -27z"/>
<path d="M3000 101 c0 -24 45 -61 75 -61 34 0 39 27 10 56 -31 31 -85 34 -85
5z"/>
<path d="M5950 107 c-27 -14 -46 -56 -37 -81 9 -22 60 -21 80 2 22 24 21 55
-1 75 -15 13 -22 14 -42 4z"/>
<path d="M5090 32 l-45 -27 89 -3 c49 -2 91 0 95 3 10 11 -48 55 -72 55 -12
-1 -42 -13 -67 -28z"/>
<path d="M3793 33 c-7 -2 -13 -11 -13 -19 0 -10 13 -14 45 -14 47 0 58 12 26
30 -21 11 -38 12 -58 3z"/>
<path d="M5763 23 c-31 -12 -8 -23 49 -23 56 0 60 1 42 15 -19 14 -66 19 -91
8z"/>
<path d="M2960 10 c0 -5 12 -10 28 -9 24 0 25 1 7 9 -27 12 -35 12 -35 0z"/>
</g>
</svg>
